<?xml version="1.0" standalone="no"?>
<!DOCTYPE svg PUBLIC "-//W3C//DTD SVG 20010904//EN"
 "http://www.w3.org/TR/2001/REC-SVG-20010904/DTD/svg10.dtd">
<svg version="1.0" xmlns="http://www.w3.org/2000/svg"
 width="762.000000pt" height="426.000000pt" viewBox="0 0 762.000000 426.000000"
 preserveAspectRatio="xMidYMid meet">

<g transform="translate(0.000000,426.000000) scale(0.100000,-0.100000)"
fill="#000000" stroke="none">
<path d="M0 2130 l0 -2130 1704 0 c1615 0 1705 1 1709 18 4 16 5 16 6 0 1 -16
14 -18 121 -18 88 0 122 3 125 13 2 6 7 35 12 62 l8 50 3 -62 c3 -59 5 -63 27
-63 13 0 26 4 30 9 3 6 8 76 10 156 4 121 14 185 28 185 3 0 -10 -214 -17
-293 l-6 -57 81 0 82 0 -6 198 c-3 118 -10 213 -18 237 -7 22 -13 42 -14 45
-1 3 -5 13 -10 23 -4 11 -3 23 4 30 17 17 13 34 -9 40 -17 4 -20 0 -21 -26 -1
-18 -1 -39 0 -49 1 -9 -3 -19 -9 -23 -5 -3 -11 -34 -12 -68 -1 -39 -4 -20 -8
53 l-5 115 -10 -65 c-7 -54 -10 -60 -15 -35 l-6 30 -8 -35 c-5 -22 -10 -29
-13 -20 -3 8 -11 18 -17 22 -7 5 -7 17 2 42 7 19 10 46 6 60 l-6 26 116 0 c69
0 116 4 116 10 0 16 -51 25 -148 25 l-92 0 5 25 c3 14 1 38 -3 54 -8 29 -9 28
-31 -32 -13 -34 -21 -68 -17 -77 6 -17 -9 -21 -19 -5 -3 6 -11 10 -16 10 -13
0 -69 -90 -69 -112 0 -10 -3 -18 -8 -18 -8 0 -42 -73 -42 -90 0 -12 -43 -30
-72 -30 -16 0 -19 5 -15 26 5 29 -17 44 -36 25 -9 -9 -8 -17 2 -34 13 -21 13
-22 -6 -5 -25 23 -33 23 -33 -2 0 -17 -7 -20 -40 -20 -54 0 -59 17 -24 87 37
74 54 79 54 19 0 -49 16 -60 40 -31 19 23 -33 99 -62 92 -16 -5 -18 -3 -9 6 6
6 11 19 11 29 0 10 5 18 11 18 6 0 9 -7 5 -15 -3 -8 -2 -15 2 -15 4 0 13 -12
19 -28 29 -64 83 -101 83 -56 0 8 5 14 11 14 5 0 15 13 20 29 8 21 15 28 27
24 12 -5 14 -2 9 11 -4 9 -3 15 1 12 16 -9 145 124 168 175 l24 51 -23 47
c-34 68 -39 97 -26 156 8 38 16 52 25 48 9 -3 14 2 14 12 0 9 -4 13 -10 10 -5
-3 -10 -1 -10 4 0 16 36 13 50 -4 10 -12 9 -15 -6 -16 -11 0 -4 -5 15 -10 40
-12 49 -6 27 17 -21 21 -16 39 12 40 20 2 20 1 2 -3 -26 -6 -25 -15 6 -43 19
-19 27 -21 33 -11 7 10 9 9 14 -3 5 -13 -2 -16 -41 -17 -26 -1 -51 -1 -55 0
-5 1 -6 -3 -3 -8 4 -5 0 -12 -6 -14 -7 -3 10 -6 37 -7 28 -1 88 -4 134 -6 46
-2 91 1 100 6 14 8 13 10 -4 11 -16 1 -15 2 5 8 15 4 31 20 40 39 8 17 23 34
33 38 9 3 17 15 17 26 0 17 -4 19 -25 14 -18 -5 -25 -2 -25 9 0 8 4 15 8 15 4
0 8 8 8 19 0 13 -5 17 -16 13 -13 -5 -13 -3 -1 11 17 22 3 22 -21 0 -17 -15
-18 -15 -18 15 0 17 -6 32 -12 35 -15 5 44 37 67 37 28 0 5 20 -23 21 -15 0
-36 5 -47 10 -16 8 -15 8 8 4 21 -4 28 -2 25 7 -3 7 -17 14 -31 16 -31 4 -37
22 -7 22 14 0 18 5 13 16 -4 12 -8 13 -14 3 -6 -10 -10 -10 -23 0 -20 17 -82
11 -78 -8 2 -9 -3 -11 -15 -7 -10 4 -30 10 -45 13 -19 4 -28 12 -28 24 0 27
46 138 67 161 21 24 77 24 102 -1 59 -59 125 -224 146 -362 20 -132 19 -162
-5 -184 -11 -10 -23 -34 -26 -53 -4 -20 -22 -57 -40 -83 -54 -75 -65 -110 -58
-184 4 -36 10 -65 15 -65 5 0 17 -9 27 -20 16 -17 42 -27 79 -29 6 -1 19 -8
28 -17 9 -9 18 -14 21 -11 3 3 -4 15 -15 26 -47 47 -100 191 -70 191 5 0 38
-18 74 -40 36 -22 71 -40 77 -40 18 0 166 -49 215 -71 41 -18 73 -17 73 3 0
13 -61 37 -79 31 -9 -2 -6 2 6 9 22 13 22 15 6 38 l-16 25 26 -24 c21 -19 30
-22 39 -13 7 7 16 12 21 12 5 0 1 -7 -7 -16 -9 -8 -16 -19 -16 -24 0 -11 28
-20 44 -14 15 6 61 -14 53 -23 -3 -2 -14 0 -25 6 -15 8 -24 6 -42 -14 -13 -14
-22 -26 -19 -28 2 -2 30 -18 61 -36 52 -29 108 -81 108 -100 0 -4 -7 -23 -16
-40 l-16 -33 -12 24 c-9 17 -19 22 -38 20 -14 -2 -29 2 -33 7 -3 6 -27 11 -53
12 l-47 1 38 10 c20 6 37 14 37 20 0 11 -61 68 -72 68 -5 0 -8 -4 -8 -10 0 -5
-8 -6 -17 -3 -15 6 -15 7 2 13 16 6 15 9 -11 27 -59 41 -111 62 -145 58 -21
-3 -29 -1 -20 4 9 6 -7 15 -53 31 -37 12 -69 20 -72 17 -5 -5 21 -93 35 -115
4 -7 15 -10 24 -6 9 3 14 10 11 15 -3 5 2 9 11 9 9 0 14 -4 11 -9 -3 -5 19
-32 50 -60 30 -28 47 -48 37 -44 -14 5 -16 4 -7 -8 14 -18 24 -59 15 -59 -4 0
-13 12 -20 26 -10 22 -14 24 -26 14 -17 -14 -17 -14 -34 15 -9 17 -10 12 -6
-25 4 -33 3 -40 -4 -25 -7 14 -8 6 -5 -30 l5 -50 -15 30 c-9 17 -14 21 -12 10
3 -11 7 -47 10 -80 5 -49 4 -56 -5 -40 -7 11 -12 21 -13 22 -1 1 -14 5 -29 9
l-29 7 6 -69 c3 -45 2 -60 -3 -44 l-9 25 -2 -25 c-2 -29 -6 -20 -15 34 -5 28
-9 35 -15 26 -9 -15 -11 -10 -30 80 -5 25 -13 61 -18 80 l-10 35 -1 -35 c-2
-32 -3 -33 -16 -17 -13 18 -14 17 -18 -10 -2 -15 -5 1 -6 37 -3 68 -18 139
-20 92 -1 -12 -6 -31 -13 -42 -10 -15 -8 -38 5 -111 10 -50 16 -94 13 -97 -7
-7 -11 8 -32 118 l-18 95 -7 -50 c-4 -27 -8 -125 -8 -217 l-1 -168 1845 0
1845 0 0 2130 0 2130 -1644 0 -1645 0 -11 -57 c-37 -186 -62 -289 -70 -297
-15 -15 -13 -8 30 175 22 93 40 171 40 174 0 9 -49 5 -55 -5 -4 -6 -8 -39 -10
-74 -1 -35 -6 -69 -9 -75 -4 -6 -11 -36 -16 -66 -8 -49 -46 -132 -56 -123 -2
2 16 81 39 176 l43 172 -2128 0 -2128 0 0 -2130z m2410 2089 c21 -29 22 -48 1
-35 -14 9 -41 66 -31 66 5 0 18 -14 30 -31z m1077 -1 c-3 -7 -5 -2 -5 12 0 14
2 19 5 13 2 -7 2 -19 0 -25z m1643 -4 c0 -8 -4 -12 -10 -9 -5 3 -10 10 -10 16
0 5 5 9 10 9 6 0 10 -7 10 -16z m275 -71 c-24 -53 -86 -145 -93 -138 -5 5 27
64 59 108 47 65 33 64 -31 -2 -54 -56 -74 -86 -52 -78 7 2 12 -6 12 -22 0 -5
-9 -11 -20 -14 -11 -3 -20 0 -20 6 0 25 21 87 30 87 5 0 26 16 47 36 33 32 84
73 90 74 2 0 -9 -26 -22 -57z m-1908 -5 c-2 -13 -4 -5 -4 17 -1 22 1 32 4 23
2 -10 2 -28 0 -40z m-1067 -25 c0 -7 -4 -13 -10 -13 -5 0 -10 7 -10 15 0 8 -6
12 -14 9 -18 -7 -28 9 -20 31 6 14 9 13 30 -6 13 -12 24 -28 24 -36z m1097 35
c-3 -8 -6 -5 -6 6 -1 11 2 17 5 13 3 -3 4 -12 1 -19z m-1199 -44 c-4 -3 -12 5
-18 18 -12 22 -12 22 6 6 10 -10 15 -20 12 -24z m2151 -27 c-17 -31 -32 -57
-34 -57 -6 0 35 92 47 107 23 28 17 4 -13 -50z m334 46 c-11 -30 -43 -79 -43
-66 0 12 39 83 46 83 2 0 0 -8 -3 -17z m1961 9 c2 -4 -14 -29 -37 -55 -39 -44
-46 -47 -102 -53 -40 -5 -71 -14 -92 -30 -35 -27 -47 -30 -38 -11 4 6 -3 1
-14 -13 -27 -33 -27 -17 0 21 11 16 28 29 37 29 11 0 13 3 5 8 -8 5 -3 19 16
47 25 38 30 41 101 51 95 15 118 16 124 6z m-3594 -83 c0 -35 46 -194 66 -228
l15 -26 -7 35 c-4 19 -15 56 -25 83 -10 26 -17 47 -15 47 5 0 52 -99 67 -144
14 -38 65 -87 110 -105 22 -9 21 -10 -11 -11 l-35 0 55 -31 c37 -20 63 -28 80
-24 22 5 23 4 8 -8 -25 -19 -4 -39 28 -27 26 10 31 2 12 -19 -11 -11 -10 -13
0 -7 7 4 22 4 34 0 19 -6 20 -7 4 -16 -9 -5 -25 -7 -34 -3 -9 3 -13 3 -9 -1 4
-4 48 -9 98 -11 88 -3 91 -2 86 18 -5 20 -5 20 15 2 l21 -18 -18 27 c-21 34
-15 54 19 60 23 5 25 3 20 -19 -6 -22 -4 -23 22 -16 16 4 55 7 87 7 57 -2 61
1 58 38 -1 12 9 18 39 23 23 4 44 4 48 0 4 -3 -3 -24 -15 -46 -23 -42 -20 -48
15 -24 18 13 32 14 89 5 38 -6 77 -12 88 -14 11 -1 30 -8 42 -14 32 -18 38
-15 18 8 -11 12 -45 35 -77 52 -32 17 -58 35 -58 39 0 16 39 9 49 -8 7 -12 10
-14 11 -4 0 8 7 11 20 8 12 -3 20 0 20 8 0 7 7 18 16 26 12 10 17 10 23 0 9
-15 21 7 21 39 0 10 10 26 22 34 21 15 21 16 3 16 -17 1 -15 5 12 28 18 15 39
45 48 65 18 44 24 47 18 10 -2 -21 -1 -23 5 -10 4 10 12 18 16 17 5 -1 13 4
17 12 7 10 9 9 9 -5 0 -10 5 -15 10 -12 13 8 13 -6 0 -39 -5 -14 -6 -26 -1
-26 9 0 7 -44 -4 -90 -6 -24 -6 -24 9 -6 14 17 16 18 16 3 0 -9 5 -17 11 -17
6 0 8 9 4 20 -8 24 43 80 72 80 10 0 27 7 37 15 11 8 39 15 62 15 40 0 44 3
88 64 55 78 109 127 114 103 2 -8 -12 -53 -31 -98 l-34 -83 18 -31 c11 -18 24
-58 30 -89 7 -38 21 -72 44 -101 42 -55 59 -106 50 -147 l-8 -32 37 32 c36 32
66 42 66 22 0 -14 -69 -89 -94 -102 -16 -9 -15 -5 7 22 42 49 22 50 -26 1 -23
-24 -34 -41 -25 -38 12 4 26 -4 44 -28 14 -19 35 -35 46 -35 15 0 18 -4 13
-17 -10 -23 -10 -36 3 -113 7 -42 8 -79 2 -105 -5 -22 -7 -41 -4 -44 2 -2 19
9 36 25 l32 29 -18 -28 c-25 -40 -15 -42 29 -7 44 35 49 37 35 10 -9 -16 -8
-20 5 -20 9 0 18 6 21 14 3 8 12 17 20 20 9 3 2 -10 -15 -30 -22 -28 -27 -40
-18 -49 9 -9 19 -6 45 12 43 28 61 30 37 3 -28 -31 -1 -24 68 18 61 37 62 37
61 15 0 -13 -11 -34 -24 -48 -24 -26 -36 -70 -16 -57 41 24 96 65 101 73 4 5
12 9 18 9 7 0 -6 -16 -28 -36 l-40 -35 40 19 c59 30 179 77 187 75 18 -6 170
180 228 280 19 32 10 26 -56 -39 -44 -42 -126 -115 -184 -162 -125 -102 -130
-106 -130 -100 0 3 55 53 123 111 67 59 144 126 170 149 47 43 64 77 44 89
-11 8 43 39 66 39 8 0 20 14 27 30 7 17 16 30 20 30 9 0 5 -87 -6 -150 -10
-59 -81 -181 -148 -255 -35 -38 -64 -74 -65 -80 0 -5 -4 -10 -8 -10 -8 -1 -31
-20 -112 -92 l-36 -31 48 9 c26 4 56 13 66 19 30 15 38 12 13 -6 -12 -8 -46
-24 -75 -35 -28 -11 -42 -18 -30 -15 25 4 63 -27 63 -52 0 -29 -12 -39 -80
-67 -36 -15 -69 -31 -74 -36 -5 -5 -15 -1 -23 9 -12 16 -13 16 -7 -1 4 -10 2
-28 -3 -40 -6 -12 -16 -35 -23 -52 -11 -28 -13 -28 -21 -10 -4 12 -8 14 -8 6
-2 -39 -58 -63 -105 -45 -18 7 -22 24 -6 24 12 0 90 77 90 89 0 5 7 14 15 21
13 11 12 16 -7 42 -18 26 -22 28 -30 14 -10 -18 -34 -21 -43 -6 -4 6 -2 17 5
25 9 11 4 16 -32 25 -41 12 -88 8 -206 -16 -46 -9 -59 -39 -38 -89 19 -46 19
-45 1 -45 -8 0 -15 -4 -15 -9 0 -21 74 -168 96 -190 13 -13 30 -45 36 -70 11
-42 13 -44 19 -21 13 46 10 70 -8 70 -16 0 -15 1 1 13 16 12 16 17 -8 92 -14
44 -32 89 -40 100 -21 27 -20 35 6 35 16 0 19 -3 11 -11 -18 -18 -6 -35 61
-87 80 -63 122 -78 168 -59 37 16 108 89 108 112 0 8 5 15 11 15 6 0 8 -7 5
-16 -5 -13 -2 -15 21 -9 45 12 143 15 143 5 0 -17 39 -11 60 10 23 23 37 25
42 8 3 -8 23 -5 68 10 77 26 73 21 -16 -23 -38 -18 -61 -34 -51 -34 10 -1 15
-5 12 -11 -3 -6 1 -7 9 -4 9 3 14 10 11 14 -3 5 3 6 13 3 10 -2 26 5 36 16 22
24 42 25 109 7 l49 -12 -24 -17 c-19 -13 -20 -16 -5 -16 9 -1 17 -4 17 -8 0
-5 -24 -7 -52 -5 -46 3 -63 -2 -123 -35 -93 -50 -104 -59 -149 -118 -32 -43
-36 -55 -31 -85 6 -31 5 -33 -7 -16 -13 17 -16 17 -30 2 -9 -9 -21 -16 -27
-16 -6 0 -11 -7 -11 -15 0 -8 -6 -15 -13 -15 -7 0 -18 -9 -25 -20 -11 -18 -10
-20 17 -20 16 0 31 -6 35 -15 3 -8 15 -15 26 -15 11 0 20 -7 20 -15 0 -10 -10
-15 -30 -15 -36 0 -39 -16 -5 -32 14 -6 25 -15 25 -19 0 -23 -15 -39 -36 -39
-13 0 -24 -4 -24 -9 0 -5 21 -9 46 -8 42 0 47 3 62 33 8 18 20 30 25 27 6 -3
7 -1 4 4 -4 6 0 27 9 48 10 26 20 35 30 31 9 -3 22 -6 30 -6 8 0 14 -7 14 -15
0 -13 3 -13 21 -3 17 11 22 10 33 -4 7 -9 24 -20 39 -23 29 -8 43 -22 33 -33
-4 -3 -21 2 -38 13 -28 16 -31 16 -25 2 4 -10 2 -17 -3 -17 -6 0 -10 -4 -10
-10 0 -5 26 -10 58 -10 31 -1 69 -6 84 -13 l26 -12 -34 -70 -35 -70 -69 0
c-39 -1 -80 -7 -95 -15 -20 -11 -37 -12 -76 -3 -58 11 -66 4 -49 -42 14 -37 6
-43 -15 -11 -19 29 -62 35 -72 11 -5 -14 -8 -14 -26 2 -25 22 -15 0 17 -36
l21 -24 -22 12 c-28 14 -36 2 -28 -47 8 -53 51 -101 131 -145 47 -25 59 -36
39 -31 -24 4 -27 3 -15 -6 12 -9 9 -10 -15 -9 -16 1 -41 1 -55 0 l-25 -2 23
-18 c24 -21 28 -37 10 -43 -7 -3 9 -15 35 -28 52 -26 61 -40 22 -32 -21 4 -25
1 -23 -18 3 -20 -4 -25 -54 -36 -48 -11 -64 -11 -105 1 -26 8 -49 13 -51 11
-5 -5 55 -49 105 -76 24 -13 41 -25 39 -27 -2 -2 -28 5 -59 15 -39 14 -54 16
-53 7 2 -16 21 -33 73 -68 23 -16 44 -35 47 -43 3 -8 22 -24 42 -36 26 -15 32
-23 22 -29 -7 -5 -23 -6 -35 -2 -34 8 -28 -12 14 -46 37 -31 36 -43 -2 -18
-46 31 -95 58 -95 53 0 -3 27 -24 60 -46 69 -47 77 -59 20 -30 -23 11 -44 19
-49 16 -11 -7 -52 24 -46 34 3 5 -7 13 -22 16 -17 5 -28 3 -31 -4 -2 -7 -8
-10 -13 -6 -19 11 -53 13 -60 3 -4 -8 -16 -6 -36 4 -33 18 -57 10 -43 -13 6
-8 10 -25 10 -38 0 -15 11 -29 35 -43 19 -12 35 -23 35 -26 0 -3 -16 4 -36 16
-19 12 -46 21 -58 21 -13 0 -29 7 -36 15 -14 16 -34 10 -24 -7 4 -7 2 -8 -5
-4 -6 4 -9 11 -6 16 3 4 -3 11 -12 14 -20 8 -36 -14 -23 -30 6 -6 8 -13 5 -16
-3 -3 3 -11 12 -19 17 -13 17 -13 3 6 -14 18 -14 19 2 7 9 -8 14 -20 11 -27
-4 -12 -12 -11 -44 5 -21 11 -39 17 -39 13 0 -3 33 -37 72 -74 40 -37 70 -70
67 -73 -3 -4 -36 21 -72 55 -70 64 -90 70 -34 10 l32 -35 -45 35 -44 34 27
-39 c14 -22 24 -43 21 -48 -3 -5 24 -42 61 -83 37 -41 64 -75 60 -75 -3 0 -35
26 -70 57 -56 50 -105 76 -105 56 0 -4 11 -24 26 -44 14 -20 26 -46 27 -58 1
-12 30 -52 65 -89 85 -89 101 -123 20 -44 -35 34 -68 62 -75 62 -6 0 -16 7
-23 15 -7 8 -16 13 -20 10 -4 -2 -27 18 -50 45 -24 28 -47 50 -53 50 -5 0 -4
-7 3 -15 7 -9 10 -18 6 -22 -3 -3 -6 -2 -6 4 0 6 -7 14 -16 17 -12 5 -10 -3 8
-26 38 -51 43 -67 8 -25 -18 20 -37 37 -43 37 -6 0 -22 12 -35 28 l-24 27 22
-33 c29 -44 20 -51 -14 -11 -15 17 -28 30 -31 28 -2 -2 3 -21 10 -41 7 -21 9
-38 4 -38 -5 0 -9 4 -9 10 0 5 -10 14 -21 21 -20 10 -21 9 -14 -12 4 -13 8
-33 9 -44 3 -26 26 -68 33 -61 4 3 -2 16 -13 28 l-19 23 23 -19 c12 -11 21
-25 18 -31 -2 -7 47 -86 109 -176 152 -220 259 -409 232 -409 -32 0 -135 116
-291 329 -113 153 -212 265 -227 255 -5 -3 -13 6 -19 20 -5 14 -14 26 -20 26
-7 0 -34 23 -61 50 -27 28 -45 50 -40 50 6 0 8 7 5 15 -4 8 -14 15 -23 15 -34
0 -95 65 -109 114 -6 25 -12 52 -12 59 0 16 38 16 67 -1 35 -19 85 -14 126 13
20 14 37 30 37 36 0 6 4 8 9 5 7 -5 129 106 159 146 12 15 9 16 -30 11 -29 -4
-58 -18 -87 -42 -33 -27 -41 -31 -33 -14 24 43 128 109 205 128 30 8 54 42 40
56 -21 21 -150 9 -137 -13 4 -6 3 -8 -4 -4 -5 3 -13 0 -16 -6 -4 -7 -4 -2 -2
11 7 33 -27 80 -91 126 -29 21 -53 40 -53 42 0 2 5 1 11 -2 14 -9 66 13 73 32
4 10 2 13 -8 10 -8 -3 -17 0 -20 8 -2 7 2 16 10 19 19 7 18 35 -2 43 -25 9 45
35 76 28 14 -4 37 -17 51 -31 21 -20 30 -23 50 -15 18 7 29 5 44 -10 19 -17
24 -17 60 -4 37 12 42 12 62 -7 l21 -20 11 20 c13 24 14 52 3 52 -4 0 -20 27
-36 61 -15 33 -36 69 -47 80 -23 23 -25 21 81 47 l75 19 -3 39 c-2 21 -5 40
-7 42 -2 2 -20 -5 -42 -16 -38 -20 -115 -24 -141 -8 -11 6 -10 12 4 27 9 10
24 19 33 19 14 0 14 2 1 10 -8 5 -12 10 -10 12 3 2 16 12 29 23 18 14 23 16
19 5 -20 -56 -20 -60 1 -60 22 0 62 47 84 99 8 18 18 32 23 31 5 -1 15 15 22
37 7 21 17 47 22 58 5 11 12 39 14 62 5 40 3 43 -22 49 -48 10 -52 13 -52 33
0 24 -19 38 -30 21 -5 -9 -9 -9 -14 -1 -16 25 -23 9 -9 -20 22 -44 9 -47 -36
-6 -42 38 -91 67 -113 67 -7 0 6 -9 28 -20 31 -16 46 -31 58 -63 10 -23 24
-55 32 -70 28 -57 13 -144 -30 -166 -19 -11 -19 -11 6 -6 20 4 26 2 22 -7 -5
-14 -80 -73 -92 -73 -4 0 -13 -4 -19 -8 -7 -5 -13 -4 -13 1 0 11 -109 22 -125
13 -5 -3 8 -9 30 -13 38 -6 37 -6 -11 -5 -50 2 -51 1 -44 -23 4 -14 5 -31 2
-39 -3 -8 0 -11 7 -7 6 4 11 3 11 -3 0 -5 -8 -14 -17 -20 -15 -8 -14 -10 10
-16 21 -6 25 -10 17 -20 -14 -16 -70 -37 -70 -26 0 5 -19 5 -42 0 -61 -12 -62
-11 -76 12 -10 15 -10 19 -1 14 8 -5 10 -4 5 3 -13 21 -25 13 -28 -20 l-3 -33
-17 30 c-9 17 -20 29 -25 28 -4 -1 -18 0 -31 4 -12 3 -30 -1 -38 -8 -9 -8 -24
-14 -33 -14 -11 0 -15 -7 -12 -20 2 -11 5 -42 6 -68 2 -31 9 -55 20 -65 17
-16 17 -16 12 1 -6 16 -5 16 20 0 24 -16 26 -16 39 2 7 10 33 22 56 26 24 4
77 17 118 28 41 11 77 21 80 21 16 0 -42 -28 -78 -39 -24 -7 -57 -25 -74 -42
-17 -16 -35 -29 -39 -29 -14 0 -11 -28 4 -37 12 -8 37 -47 37 -60 0 -4 -5 -2
-12 5 -15 15 -32 16 -23 1 4 -6 41 -35 82 -66 92 -68 99 -82 75 -148 -24 -66
-55 -85 -101 -62 -31 15 -35 15 -57 -1 -14 -9 -27 -29 -31 -45 -3 -15 -9 -30
-13 -32 -5 -3 -6 5 -2 17 4 17 2 20 -12 15 -10 -4 -26 -2 -36 3 -13 7 -20 6
-23 -3 -4 -12 -28 11 -97 92 -19 23 -50 47 -69 54 -26 9 -38 23 -57 66 -13 29
-48 94 -78 145 -30 50 -56 100 -57 111 -3 26 10 85 20 85 4 0 22 -19 41 -42
64 -79 62 -73 49 -102 -7 -14 -16 -26 -21 -26 -4 0 -8 -7 -8 -15 0 -9 9 -15
23 -15 29 0 69 -41 65 -66 -2 -13 4 -20 18 -22 14 -2 31 -21 48 -51 14 -27 41
-63 58 -80 29 -28 38 -31 68 -26 19 4 37 8 39 10 6 7 -35 79 -47 83 -7 2 -10
-2 -6 -12 10 -26 -96 14 -109 41 -9 19 -1 32 62 104 65 75 75 94 51 94 -14 0
-112 76 -106 82 3 3 14 0 23 -8 15 -11 15 -10 -1 9 -11 12 -24 22 -30 22 -6 0
-31 -20 -56 -45 -45 -45 -47 -45 -64 -26 -10 10 -26 53 -36 95 -11 42 -24 86
-30 99 -7 14 -3 11 12 -8 12 -16 44 -52 70 -80 40 -41 50 -47 58 -35 17 26 68
193 81 265 17 100 7 244 -19 288 -17 27 -24 60 -31 153 l-9 119 35 77 c66 150
88 240 65 275 -10 16 -83 1 -162 -32 l-62 -26 -41 25 c-23 14 -58 40 -77 58
-61 59 -104 78 -182 81 -87 3 -116 -12 -170 -95 -21 -31 -47 -59 -58 -63 -11
-4 -17 -11 -14 -17 8 -12 -35 -4 -109 21 -59 20 -66 32 -38 60 15 15 34 21 65
21 80 0 105 11 171 73 83 77 104 87 184 87 57 0 74 -4 114 -30 80 -50 124 -69
170 -74 l44 -4 -23 56 c-12 32 -26 80 -29 108 -8 56 -4 62 49 74 28 6 24 8
-42 23 -134 32 -273 41 -401 27 -117 -12 -304 -54 -374 -83 -34 -15 -37 -18
-27 -38 15 -27 6 -36 -15 -16 -9 9 -29 24 -45 34 -16 9 -30 26 -32 36 -2 12
-29 34 -71 58 -61 35 -76 39 -137 39 -57 0 -78 -5 -139 -36 -103 -51 -168
-143 -130 -181 9 -9 7 -21 -6 -50 -11 -23 -20 -70 -23 -118 -4 -63 -10 -88
-30 -117 -14 -22 -33 -38 -44 -38 -13 0 -17 -4 -12 -12 4 -7 -1 -5 -12 4 -20
17 -22 16 -58 -21 l-37 -38 53 -45 c59 -50 94 -71 106 -64 5 3 17 23 27 46 18
40 35 53 35 26 0 -25 52 -156 61 -156 5 0 9 12 9 28 1 24 3 23 23 -18 l22 -45
5 50 6 50 12 -42 c13 -44 46 -74 55 -50 3 8 9 6 19 -7 12 -15 18 -16 36 -7 40
21 110 13 157 -18 86 -58 105 -75 105 -93 0 -11 11 -29 25 -42 13 -13 21 -27
17 -31 -4 -5 7 2 25 15 26 18 34 35 47 89 9 36 17 80 19 96 3 24 4 22 5 -10 1
-22 -12 -96 -30 -165 -41 -165 -44 -336 -8 -473 l23 -88 -26 -27 c-15 -16 -27
-34 -27 -42 0 -7 -10 -25 -22 -38 -16 -17 -19 -26 -10 -29 27 -10 10 -24 -25
-22 -41 4 -43 -3 -22 -59 l10 -26 50 52 c27 28 49 56 49 61 0 6 16 13 35 17
45 8 55 24 16 24 -16 0 -32 -6 -35 -12 -4 -7 -4 -3 -2 8 3 17 0 20 -16 16 -18
-4 -19 -2 -9 17 7 12 26 31 44 43 18 11 42 43 55 69 57 119 242 283 242 214 0
-8 -30 -47 -66 -87 -36 -39 -78 -96 -92 -124 -14 -29 -29 -51 -34 -48 -4 3
-10 -8 -13 -23 -3 -15 -12 -41 -21 -57 -13 -26 -13 -30 3 -42 17 -13 17 -14
-1 -7 -17 6 -17 3 4 -25 26 -35 50 -48 50 -27 0 8 11 25 25 39 32 32 32 59 -2
92 -16 15 -23 24 -18 21 6 -3 37 28 70 68 l60 73 32 -91 c18 -51 32 -107 33
-125 0 -19 -26 -90 -65 -175 -61 -134 -118 -283 -151 -388 -15 -49 -36 -75
-53 -65 -21 13 -45 -11 -77 -78 -19 -39 -34 -77 -34 -85 0 -8 -12 -32 -26 -52
-31 -45 -24 -63 21 -56 l33 5 -11 -31 c-8 -23 -12 -27 -15 -14 -4 20 -13 22
-31 5 -11 -11 -12 -10 -6 0 4 9 -1 19 -14 28 -12 9 -19 19 -16 23 7 13 -35 45
-114 85 -40 21 -83 46 -94 55 -228 183 -339 309 -451 510 l-56 100 25 37 c27
40 31 54 15 54 -5 0 -10 -4 -10 -10 0 -5 -7 -10 -15 -10 -9 0 -15 -7 -13 -17
4 -24 -34 -32 -115 -24 -5 1 -5 6 -1 13 4 7 3 8 -5 4 -6 -4 -9 -12 -6 -17 13
-20 -13 -7 -40 20 -28 30 -31 61 -10 114 6 13 3 16 -9 11 -9 -3 -28 1 -42 11
-22 14 -23 19 -12 32 11 14 10 16 -14 11 -34 -6 -41 11 -14 34 20 17 19 17
-44 19 l-65 1 44 9 c25 5 50 11 55 14 18 9 -87 -5 -124 -17 -56 -17 -160 -68
-160 -79 0 -6 29 -8 78 -4 74 5 76 5 42 -9 -38 -16 -137 -21 -157 -8 -10 7
-11 51 -1 56 2 1 19 13 38 27 34 25 97 41 210 54 97 11 112 15 105 33 -3 8 0
19 7 24 9 5 5 8 -12 8 -24 1 -24 1 5 15 24 11 26 14 10 15 -11 1 -14 4 -7 7
30 12 7 23 -50 24 l-63 1 65 16 c59 15 62 17 35 23 -24 5 -27 7 -13 13 22 10
6 28 -37 43 -28 9 -49 43 -26 43 6 0 8 -7 5 -15 -5 -12 2 -15 27 -14 19 0 43
4 54 9 15 7 10 9 -23 9 -26 1 -41 5 -37 11 3 6 -2 10 -12 10 -13 1 -11 5 10
16 17 9 25 19 20 27 -13 21 -12 37 3 37 19 0 54 36 54 55 0 17 -25 20 -35 5
-8 -13 -25 -13 -25 0 0 6 10 15 23 19 l22 9 -25 10 c-21 9 -22 11 -5 12 16 0
17 2 5 10 -21 13 -12 17 63 23 l67 5 0 -30 c0 -27 2 -29 23 -23 12 5 43 8 70
7 26 -1 47 2 47 7 0 5 14 14 30 20 17 5 30 14 29 18 -3 19 2 33 12 33 6 0 17
7 25 15 9 8 26 15 40 15 20 0 24 5 24 28 0 17 -3 23 -8 14 -22 -34 -227 -20
-277 20 -16 13 -25 29 -25 49 0 16 -4 29 -8 29 -15 0 -32 -24 -32 -46 0 -32
-12 -36 -56 -20 -22 8 -33 15 -26 15 7 1 10 6 7 11 -3 6 1 10 10 10 15 0 15 1
1 16 -9 8 -16 22 -16 31 0 10 -6 13 -16 9 -8 -3 -13 -2 -10 3 3 5 -11 17 -32
26 -20 10 -55 32 -77 50 -22 17 -66 47 -97 65 -57 33 -71 50 -45 50 8 0 56
-14 108 -31 52 -17 108 -34 124 -39 17 -4 39 -11 50 -16 17 -7 18 -6 7 8 -10
13 -8 15 15 11 24 -4 21 -1 -16 22 -25 14 -103 54 -173 87 -71 34 -126 63
-124 65 2 3 21 -4 43 -15 66 -34 253 -112 268 -112 9 0 12 6 9 15 -4 8 -13 15
-21 15 -9 0 -13 6 -9 15 3 8 2 15 -2 15 -5 0 -30 14 -56 30 -39 25 -46 33 -36
45 14 16 -8 30 -273 166 -97 51 -176 94 -174 95 2 2 128 -59 280 -137 152 -77
277 -137 277 -132 0 4 -14 21 -32 36 -23 20 -27 27 -13 22 29 -9 13 4 -90 72
-98 66 -185 139 -185 155 0 20 69 -1 170 -51 55 -28 100 -49 100 -46 0 2 -65
47 -144 99 -79 52 -147 100 -151 107 -6 8 -2 8 14 0 12 -7 27 -9 33 -5 6 4 8
3 5 -3 -7 -11 219 -170 228 -161 3 3 -13 17 -35 32 -22 14 -40 33 -40 41 0 8
-3 15 -7 15 -5 0 -30 21 -58 45 -40 36 -22 26 87 -45 148 -97 194 -121 185
-95 -4 8 -1 14 5 12 28 -6 14 24 -27 57 -54 45 -60 69 -13 56 17 -5 48 -21 68
-35 20 -14 40 -25 46 -25 5 0 20 -9 34 -20 36 -28 47 -24 19 7 -19 20 -13 18
25 -11 36 -27 52 -33 60 -25 8 8 -7 27 -53 70 -36 32 -62 62 -58 66 4 4 -18
34 -50 67 -32 33 -4 10 62 -50 131 -119 176 -157 136 -111 -26 28 -23 34 10
17 10 -6 19 -9 19 -6 0 2 -72 80 -160 172 -88 92 -157 170 -155 173 3 2 -5 16
-17 30 l-23 26 25 -21 c14 -12 31 -19 38 -17 7 3 75 -59 153 -137 77 -78 142
-140 145 -138 2 3 -5 13 -16 23 -11 10 -20 26 -20 37 0 21 4 22 33 6 16 -8 12
1 -17 38 l-39 49 46 -45 c26 -24 47 -39 47 -33 0 7 -5 15 -11 18 -5 4 -8 12
-6 18 3 7 -7 25 -22 42 -20 23 -17 21 17 -8 23 -20 45 -37 50 -38 4 0 15 -2
25 -4 17 -3 16 -1 -3 32 -11 20 -42 61 -69 92 -26 31 -55 70 -65 86 -17 29
-16 29 16 -5 18 -19 50 -55 71 -79 20 -25 37 -42 37 -40 0 3 -11 27 -24 55
-13 27 -27 65 -31 84 -4 19 -16 47 -27 63 -11 15 -18 37 -16 50 3 20 8 17 57
-33 30 -30 47 -43 37 -28 -17 29 -21 42 -8 35 13 -9 31 19 21 34 -20 32 -7 31
27 -2 l36 -34 -17 35 -17 35 26 -30 c20 -23 28 -27 34 -17 7 11 11 10 16 -4 3
-9 9 -14 12 -11 3 3 -9 34 -26 68 -21 45 -25 56 -11 39 12 -14 23 -33 27 -42
3 -10 9 -18 14 -18 5 0 7 6 4 14 -7 19 14 30 31 16 11 -9 13 -6 8 20 -3 20 -1
30 5 26 6 -3 13 0 16 6 5 10 7 10 12 1 8 -18 27 -16 20 2 -18 44 -16 48 8 21
28 -32 34 -25 11 14 -27 46 -20 54 33 36 19 -6 23 -13 18 -34 -5 -20 -4 -23 4
-12 5 8 10 26 10 40 0 24 0 24 14 5 8 -11 19 -39 26 -62 8 -24 20 -43 31 -46
12 -3 16 0 12 9 -3 8 -10 11 -16 7 -7 -4 -8 0 -3 12 7 20 -2 58 -12 51 -4 -2
-8 6 -8 17 -1 12 -5 33 -8 47 -7 24 35 -56 69 -135 10 -22 20 -34 22 -28 3 7
-3 27 -11 44 -18 37 -21 51 -5 29 9 -12 10 -11 4 5 -4 11 -11 49 -15 85 -5 36
-18 103 -29 150 -12 47 -21 92 -20 100 1 24 28 -43 29 -71z m350 -44 c9 -27 9
-27 5 -2 -3 15 -1 27 5 27 5 0 10 -12 10 -26 0 -37 32 -164 40 -159 4 2 7 -2
7 -9 0 -8 -8 -11 -19 -8 -14 3 -18 -1 -18 -22 0 -31 -18 -33 -53 -6 -33 26
-45 25 -21 -2 14 -16 6 -13 -28 10 -46 31 -46 33 -53 99 -4 38 -10 91 -15 118
-4 28 -6 52 -4 54 5 5 8 -6 29 -102 9 -42 21 -75 26 -71 5 3 10 -1 10 -8 1 -7
5 12 10 42 5 30 6 76 3 102 -5 44 -4 47 15 43 14 -3 21 1 22 13 1 9 5 -1 10
-23 6 -22 14 -53 19 -70z m477 73 c-3 -7 -5 -2 -5 12 0 14 2 19 5 13 2 -7 2
-19 0 -25z m-1618 -22 c-3 -3 -11 5 -18 17 -13 21 -12 21 5 5 10 -10 16 -20
13 -22z m107 12 c-9 -5 -22 -7 -29 -4 -7 2 -4 5 6 5 10 1 15 5 12 11 -4 6 1 7
11 3 15 -6 15 -7 0 -15z m1601 -40 c-5 -34 -13 -71 -17 -82 -8 -20 -9 -19 -9
4 0 23 14 99 24 128 10 28 11 8 2 -50z m278 -5 c-3 -68 -35 -173 -51 -173 -17
0 -19 -13 16 110 17 58 30 106 30 107 0 2 2 3 4 3 2 0 2 -21 1 -47z m-415 -5
c0 -5 -9 -4 -20 2 -11 6 -25 8 -30 5 -11 -7 -14 8 -4 18 8 7 54 -14 54 -25z
m374 -5 c-6 -34 -24 -70 -24 -49 0 14 23 86 27 86 2 0 1 -17 -3 -37z m-464 6
c0 -6 -4 -7 -10 -4 -5 3 -10 11 -10 16 0 6 5 7 10 4 6 -3 10 -11 10 -16z
m-190 -34 c-7 -9 -22 -21 -32 -26 -17 -9 -18 -8 -9 10 11 20 42 43 50 35 2 -2
-2 -11 -9 -19z m156 6 c-7 -11 91 -54 126 -54 18 0 28 -7 32 -20 3 -14 10 -17
27 -12 44 14 53 -48 13 -92 -14 -15 -23 -22 -19 -15 9 18 -10 15 -26 -5 -13
-15 -15 -13 -19 17 -3 18 -14 39 -26 47 -18 12 -24 11 -49 -9 -35 -27 -52 -31
-142 -29 l-73 2 0 -35 c0 -34 -1 -34 -31 -26 -31 9 -65 42 -49 48 5 2 14 19
20 38 10 31 15 34 49 34 35 0 42 5 82 60 32 44 50 60 67 60 13 0 21 -4 18 -9z
m2022 -51 c-34 -22 -48 -36 -48 -53 0 -12 4 -17 8 -11 8 12 53 14 46 2 -3 -5
-21 -15 -40 -23 -45 -18 -46 -45 -1 -45 23 -1 28 -3 17 -9 -21 -12 -130 -19
-136 -9 -3 4 -1 8 4 8 5 0 14 12 21 27 11 24 11 25 -5 12 -16 -13 -16 -12 -5
8 6 13 25 30 41 38 17 9 30 18 30 21 0 3 -6 2 -12 -2 -7 -4 -10 -4 -7 0 8 9
112 63 124 64 6 1 -11 -12 -37 -28z m102 7 c0 -2 -10 -12 -22 -23 l-23 -19 19
23 c18 21 26 27 26 19z m-1653 -57 c-7 -24 -18 -45 -25 -48 -10 -3 -9 6 3 34
9 22 19 45 22 52 12 29 12 3 0 -38z m-925 -24 c7 -13 7 -16 -1 -12 -24 15 -9
-21 24 -56 34 -38 31 -43 -13 -31 -18 4 -23 11 -19 29 2 13 0 24 -4 24 -5 0
-9 21 -8 48 0 26 3 40 6 32 3 -8 10 -23 15 -34z m1678 1 c0 -2 -15 -14 -32
-27 l-33 -23 24 26 c21 23 41 35 41 24z m-2570 -89 c0 -6 -7 -5 -15 2 -8 7
-15 17 -15 22 0 6 7 5 15 -2 8 -7 15 -17 15 -22z m1405 -2 l34 -34 -24 -22
c-20 -19 -27 -20 -64 -10 -46 12 -50 19 -21 45 11 10 20 26 20 37 0 27 17 22
55 -16z m375 -24 c0 -13 -12 -22 -22 -16 -10 6 -1 24 13 24 5 0 9 -4 9 -8z
m-60 -52 c0 -5 -4 -10 -10 -10 -5 0 -10 5 -10 10 0 6 5 10 10 10 6 0 10 -4 10
-10z m-310 -30 c11 -7 -1 -10 -40 -9 -40 0 -49 3 -35 9 27 12 57 12 75 0z
m1108 -21 c-10 -5 -15 -16 -12 -23 3 -8 1 -17 -5 -21 -7 -4 -8 1 -4 12 6 16 5
17 -13 3 -10 -8 -6 0 10 18 16 17 32 29 35 26 3 -3 -2 -10 -11 -15z m-1309
-26 c-1 -17 -3 -21 -6 -10 -2 9 -10 17 -16 17 -7 0 -6 4 3 10 20 13 20 13 19
-17z m-1575 -107 c27 -3 52 -9 55 -14 3 -5 21 -13 40 -17 26 -5 32 -4 26 6 -6
9 -3 11 9 6 10 -4 21 -7 26 -7 8 0 50 -92 50 -111 0 -7 8 -21 17 -31 16 -18
16 -18 -1 -12 -17 6 -18 3 -12 -29 6 -33 5 -36 -21 -39 -15 -2 -46 4 -68 13
-22 9 -57 19 -78 23 -31 6 -36 10 -27 21 11 14 39 10 51 -7 9 -14 68 -27 75
-17 4 6 11 5 20 -2 22 -18 26 -6 6 22 -20 29 -24 43 -25 96 0 46 -4 49 -72 63
-214 44 -231 45 -199 9 12 -14 13 -19 4 -19 -9 0 -5 -9 10 -25 25 -26 42 -26
20 0 -21 26 -5 17 21 -12 18 -20 20 -25 7 -20 -21 7 -22 3 -8 -24 7 -13 7 -19
0 -19 -5 0 -10 5 -10 11 0 5 -4 8 -9 5 -4 -3 -17 1 -27 10 -18 14 -18 15 4 4
12 -6 22 -8 22 -4 0 4 -25 37 -55 75 -30 37 -55 70 -55 72 0 2 35 -2 78 -9 42
-6 99 -14 126 -18z m3706 0 c0 -2 -8 -10 -17 -17 -16 -13 -17 -12 -4 4 13 16
21 21 21 13z m-3089 -33 c13 -16 12 -17 -3 -4 -10 7 -18 15 -18 17 0 8 8 3 21
-13z m-496 -113 c3 -6 -1 -7 -9 -4 -18 7 -21 14 -7 14 6 0 13 -4 16 -10z
m-540 -20 c17 -11 26 -20 22 -20 -11 0 -67 29 -67 35 0 10 16 4 45 -15z m3964
-36 c-13 -14 -64 -57 -114 -95 -49 -38 -112 -87 -140 -110 -34 -28 -26 -18 25
32 68 67 232 199 247 199 4 0 -4 -12 -18 -26z m-479 -74 c0 -5 -5 -10 -11 -10
-5 0 -7 5 -4 10 3 6 8 10 11 10 2 0 4 -4 4 -10z m-3453 -77 c-4 -3 -2 -12 4
-19 8 -10 5 -13 -13 -11 -41 2 -47 37 -6 37 12 0 18 -3 15 -7z m1183 -37 c0
-3 -4 -8 -10 -11 -5 -3 -10 -1 -10 4 0 6 5 11 10 11 6 0 10 -2 10 -4z m2456
-21 c-11 -8 -25 -15 -30 -15 -6 0 -2 7 8 15 11 8 25 15 30 15 6 0 2 -7 -8 -15z
m-346 -5 c0 -5 -4 -10 -10 -10 -5 0 -10 5 -10 10 0 6 5 10 10 10 6 0 10 -4 10
-10z m410 -20 c-24 -15 -37 -11 -16 5 11 8 22 12 25 9 3 -3 -1 -9 -9 -14z
m-2061 -47 c27 -103 32 -132 28 -159 -4 -26 -4 -26 -6 7 -1 44 -30 129 -42
129 -6 0 -7 -16 -4 -37 l6 -38 -14 35 c-8 19 -19 47 -25 61 -12 31 -7 39 24
39 18 0 25 -8 33 -37z m2496 -23 c-3 -5 -16 -10 -28 -10 -16 0 -18 -3 -9 -9
11 -7 11 -9 -1 -14 -10 -4 -14 0 -13 10 2 9 11 20 22 24 27 11 36 10 29 -1z
m-2625 -17 c0 -10 -5 -35 -9 -57 -7 -26 -6 -45 2 -57 21 -33 -15 -86 -76 -113
-59 -27 -117 -40 -117 -27 0 5 12 14 28 19 27 10 27 10 -10 11 -30 1 -37 5
-40 24 -2 14 -11 23 -27 25 -20 3 -23 0 -18 -17 3 -12 2 -21 -1 -22 -87 -10
-88 -10 -112 16 -16 17 -26 40 -27 63 -1 20 -5 59 -9 86 l-7 48 29 -18 c59
-37 79 -59 76 -81 -2 -13 1 -23 7 -23 6 0 11 6 11 13 1 6 9 2 19 -10 29 -35
68 -30 107 15 28 31 32 33 27 13 -4 -17 -2 -22 8 -19 8 2 15 18 17 34 2 24 14
37 55 62 60 37 67 38 67 15z m2050 -13 c0 -5 -5 -10 -11 -10 -5 0 -7 5 -4 10
3 6 8 10 11 10 2 0 4 -4 4 -10z m-965 -287 c-55 -161 -57 -163 -111 -115 -48
41 -58 66 -40 100 18 35 40 54 57 50 8 -2 13 2 12 9 -1 6 5 17 15 25 15 12 16
11 3 -4 -19 -25 2 -23 24 2 10 11 27 20 38 20 16 0 17 3 8 14 -10 11 -8 17 6
25 30 16 27 -10 -12 -126z m-859 16 c8 -8 14 -20 14 -26 0 -6 16 -25 35 -42
19 -17 35 -38 35 -48 0 -27 16 -46 31 -39 8 4 3 -2 -10 -13 -30 -27 -47 -26
-65 2 -23 35 -63 148 -70 197 -5 41 -5 42 5 15 7 -16 18 -37 25 -46z m-52 -38
c-1 -23 -17 -70 -39 -115 -27 -55 -39 -95 -45 -148 -4 -40 -8 -61 -9 -46 0 15
-8 33 -16 42 -8 8 -15 24 -15 36 0 11 7 23 15 26 9 4 15 20 15 43 0 20 12 63
25 96 14 33 25 63 25 67 0 4 5 19 10 34 15 38 35 16 34 -35z m-409 32 c8 -11
26 -17 49 -17 37 0 46 -12 24 -34 -29 -29 -98 1 -98 44 0 28 8 31 25 7z m2715
-1 c0 -14 -33 -39 -74 -56 -56 -23 -78 -20 -41 5 26 18 27 20 6 14 -34 -10
-17 13 23 31 35 15 86 18 86 6z m840 -22 c0 -5 14 -11 31 -15 31 -7 179 -72
179 -79 0 -6 -123 -46 -127 -42 -3 2 6 7 18 11 12 4 31 16 42 26 19 17 19 18
-19 35 -56 24 -137 53 -151 54 -7 0 -13 -6 -13 -13 0 -16 -37 -51 -65 -62 -20
-7 -20 -7 1 -15 12 -5 25 -13 28 -18 9 -14 -36 -2 -55 15 -15 13 -14 17 15 49
41 45 85 74 102 67 8 -3 14 -9 14 -13z m-1416 -68 c-7 -33 -34 -45 -34 -15 0
16 30 57 37 50 2 -2 0 -18 -3 -35z m910 -58 c36 -19 76 -53 76 -66 0 -5 -11 4
-24 19 -20 22 -27 26 -37 16 -15 -15 -49 -17 -49 -4 0 5 -9 7 -19 4 -27 -7
-61 14 -61 39 0 19 4 20 41 14 23 -4 55 -14 73 -22z m-5274 -14 c25 -17 54
-37 65 -46 11 -8 36 -24 56 -34 32 -17 56 -46 46 -56 -2 -2 -39 -9 -83 -15
l-79 -11 -55 32 c-30 18 -66 41 -79 51 -16 13 -41 19 -80 20 -36 0 -49 3 -37
8 14 5 16 10 8 15 -7 4 -16 4 -22 1 -5 -3 -10 -1 -10 4 0 6 4 11 9 11 5 0 23
3 41 7 24 4 31 3 26 -5 -4 -7 -1 -12 8 -12 9 0 16 7 16 15 0 13 73 43 110 44
8 0 35 -13 60 -29z m5769 11 c7 -5 9 -11 4 -14 -6 -4 -19 0 -29 8 -15 11 -16
14 -4 15 8 0 21 -4 29 -9z m-3359 -27 c0 -8 -5 -12 -10 -9 -6 4 -8 11 -5 16 9
14 15 11 15 -7z m-175 -16 c-11 -36 -25 -45 -25 -17 0 27 7 39 22 39 5 0 6
-10 3 -22z m2233 5 c-10 -2 -28 -2 -40 0 -13 2 -5 4 17 4 22 1 32 -1 23 -4z
m-4753 -13 c-3 -5 -11 -10 -16 -10 -6 0 -7 5 -4 10 3 6 11 10 16 10 6 0 7 -4
4 -10z m2752 -32 c-3 -7 -5 -2 -5 12 0 14 2 19 5 13 2 -7 2 -19 0 -25z m998
-6 c7 -33 -9 -145 -29 -203 -20 -59 3 -45 36 22 35 68 36 44 2 -41 -43 -110
-59 -133 -121 -176 -82 -56 -186 -88 -265 -81 -114 10 -258 102 -258 164 0 28
8 32 43 22 l31 -9 -36 30 c-49 41 -87 156 -67 207 16 42 93 24 162 -37 35 -30
37 -36 37 -90 0 -61 25 -110 48 -96 17 10 15 26 -2 20 -8 -3 -16 -1 -19 3 -3
5 4 10 15 10 12 1 24 7 28 12 4 7 13 6 26 -4 26 -19 89 -19 119 1 15 10 25 12
25 5 0 -6 5 -11 10 -11 15 0 29 43 19 56 -14 17 37 108 94 171 57 62 92 70
102 25z m-1871 -43 c8 -9 4 -10 -19 -6 -26 5 -28 4 -12 -8 10 -7 15 -15 10
-18 -13 -8 -96 27 -101 42 -4 11 6 13 53 8 32 -3 63 -11 69 -18z m3821 -6 l18
-28 -21 19 c-12 11 -22 23 -22 28 0 14 7 9 25 -19z m-383 -36 c2 -14 -9 -23
-49 -37 -29 -10 -67 -25 -84 -34 -29 -15 -29 -13 12 29 31 32 52 45 71 45 15
0 30 5 33 11 8 13 12 10 17 -14z m68 13 c0 -5 -8 -10 -17 -10 -15 0 -16 2 -3
10 19 12 20 12 20 0z m340 -35 c7 -9 8 -15 2 -15 -5 0 -12 7 -16 15 -3 8 -4
15 -2 15 2 0 9 -7 16 -15z m-286 -102 c-8 -13 -12 -28 -9 -33 3 -5 1 -11 -3
-14 -11 -7 -32 37 -32 66 0 14 5 18 15 15 8 -4 17 -2 20 3 4 6 -1 10 -9 10
-22 0 -20 18 2 22 25 5 36 -40 16 -69z m316 28 c-10 -37 -30 -74 -37 -68 -2 3
0 13 6 24 6 10 15 30 21 46 13 36 21 35 10 -2z m-351 -85 c8 -9 10 -16 7 -16
-14 0 -64 30 -68 40 -2 6 -24 11 -51 13 -27 1 -47 6 -47 13 0 17 56 37 82 31
13 -4 30 -2 38 3 12 8 16 2 21 -29 3 -22 11 -46 18 -55z m90 58 c6 4 11 2 11
-3 0 -6 -9 -11 -20 -11 -12 0 -20 7 -20 18 0 13 2 14 9 3 5 -7 14 -10 20 -7z
m-13 -102 c-12 -12 -18 8 -10 35 l8 28 4 -28 c2 -16 1 -31 -2 -35z m144 -89
c0 -13 3 -14 12 -5 7 7 33 12 59 12 43 0 46 -1 42 -24 -5 -25 -27 -36 -75 -36
-16 0 -28 -5 -28 -11 0 -8 -5 -8 -15 1 -17 14 -21 80 -5 80 6 0 10 -8 10 -17z
m-3882 -30 c-10 -2 -28 -2 -40 0 -13 2 -5 4 17 4 22 1 32 -1 23 -4z m3775 -26
c26 -14 53 -46 87 -99 45 -70 92 -163 74 -145 -4 4 -13 2 -21 -4 -14 -12 -17
-3 -13 35 1 10 -4 32 -11 48 -11 28 -14 29 -25 13 -12 -15 -14 -13 -29 21 -9
22 -19 51 -22 67 -5 24 -7 25 -18 11 -11 -15 -14 -15 -43 0 -23 12 -37 13 -56
6 -22 -8 -26 -7 -26 10 0 10 5 31 12 45 13 28 27 27 91 -8z m-1982 -68 c28
-14 41 -54 40 -122 -1 -91 -37 -144 -120 -176 -68 -27 -81 -26 -118 8 -32 29
-63 109 -63 160 0 41 19 98 37 112 14 13 82 23 171 27 18 1 42 -3 53 -9z
m-1913 -16 c-32 -2 -86 -2 -120 0 -35 2 -9 3 57 3 66 0 94 -1 63 -3z m3502
-73 c-19 -13 -30 -13 -30 0 0 6 10 10 23 10 18 0 19 -2 7 -10z m-722 -43 c10
4 13 2 8 -5 -4 -7 -22 -12 -41 -12 -19 0 -46 -5 -62 -10 -26 -9 -27 -9 -9 5
11 8 28 15 37 15 10 0 21 5 25 11 4 7 10 7 16 1 6 -6 17 -8 26 -5z m1217 -75
c-3 -3 -11 0 -18 7 -9 10 -8 11 6 5 10 -3 15 -9 12 -12z m74 -45 c-15 -29 -40
-57 -50 -57 -5 0 3 16 16 36 14 20 25 49 26 63 l0 26 10 -23 c6 -16 5 -31 -2
-45z m-1682 37 c3 -8 -50 -34 -70 -34 -17 0 -4 21 21 34 29 16 44 16 49 0z
m-2327 2 c0 -2 -7 -7 -16 -10 -8 -3 -12 -2 -9 4 6 10 25 14 25 6z m90 -26 c-8
-5 -22 -9 -30 -9 -10 0 -8 3 5 9 27 12 43 12 25 0z m2594 -24 c-7 -17 -46 -28
-69 -19 -15 5 -14 8 6 19 33 18 70 18 63 0z m-1285 -28 c9 -23 -11 -78 -27
-78 -19 0 -31 39 -21 69 13 36 36 40 48 9z m1361 8 c0 -2 -7 -7 -16 -10 -8 -3
-12 -2 -9 4 6 10 25 14 25 6z m-695 -36 c-16 -16 -31 -27 -34 -24 -6 6 45 54
56 54 4 0 -6 -13 -22 -30z m90 -13 c31 -27 37 -37 30 -53 -4 -10 -9 -22 -9
-26 -1 -9 -16 -23 -24 -23 -4 0 -24 -11 -45 -24 l-39 -24 -30 31 -31 30 47 61
c26 34 51 61 55 61 4 0 25 -15 46 -33z m1771 4 c-18 -19 -61 -37 -50 -20 3 5
11 9 18 9 8 0 19 7 26 15 7 8 15 15 18 15 3 0 -3 -9 -12 -19z m-3521 -206
c134 -279 395 -543 658 -665 37 -18 67 -35 67 -38 0 -4 -9 -22 -20 -39 -18
-31 -18 -38 3 -34 5 1 0 -10 -12 -25 -27 -35 -27 -60 2 -68 l22 -7 -21 -9
c-12 -5 -25 -13 -29 -19 -5 -9 -12 -66 -15 -124 0 -5 -5 -5 -10 -2 -6 3 -15
-4 -20 -17 -9 -21 -9 -21 -7 7 1 23 -2 30 -15 29 -22 -2 -24 14 -3 22 8 4 12
10 9 15 -4 7 6 55 23 107 3 9 -4 4 -15 -13 -10 -16 -29 -39 -41 -49 -18 -17
-21 -17 -15 -3 3 9 11 17 16 17 5 0 8 6 5 13 -2 6 3 18 12 25 9 8 11 11 5 8
-16 -8 -15 40 3 83 13 34 13 35 -3 16 -16 -19 -16 -19 -11 9 l5 30 -19 -25
c-16 -20 -20 -22 -28 -9 -8 11 -12 8 -21 -15 -36 -98 -43 -115 -48 -111 -2 3
10 41 27 86 31 81 40 122 20 87 -6 -11 -17 -16 -28 -12 -13 4 -22 -5 -36 -35
-25 -56 -28 -44 -5 21 l19 54 -29 -35 c-16 -19 -30 -29 -30 -21 0 8 -18 -15
-41 -50 -57 -90 -67 -96 -25 -16 29 54 32 65 16 55 -11 -7 -20 -15 -20 -18 0
-3 -12 -18 -25 -35 l-26 -30 26 53 c29 60 46 102 41 102 -2 0 -16 -19 -31 -42
-16 -24 -55 -75 -87 -114 -59 -72 -81 -85 -151 -88 -20 -1 -41 -14 -68 -43
-45 -49 -109 -94 -121 -87 -14 9 21 76 102 196 44 64 80 125 80 135 0 11 6 25
13 32 10 11 9 12 -2 6 -9 -5 -7 1 4 19 25 37 3 32 -45 -11 -56 -51 -70 -51
-66 -2 3 28 1 37 -7 32 -13 -7 3 16 38 56 l20 23 -25 -7 c-22 -7 -23 -6 -11 9
17 21 7 21 -13 0 -24 -23 -20 5 4 36 11 14 20 32 20 41 0 8 6 21 13 28 10 11
8 11 -10 2 -12 -6 -27 -17 -35 -24 -7 -7 -26 -21 -43 -31 l-30 -19 18 21 c11
11 16 25 13 31 -4 6 10 29 31 52 26 29 32 40 19 35 -20 -7 -20 -7 0 15 l19 22
-25 -13 c-22 -11 -20 -8 9 24 19 20 32 37 28 37 -4 1 -11 3 -17 4 -5 1 -29 3
-52 5 -24 1 -37 4 -30 7 14 5 17 33 3 33 -5 0 -7 10 -3 22 4 18 2 20 -16 16
-12 -4 -20 -2 -16 3 7 12 -3 11 -28 -2 -27 -14 -36 -2 -12 16 12 9 14 14 6 15
-7 0 -10 5 -7 10 3 6 -1 10 -9 10 -9 0 1 15 25 38 l40 37 -28 0 c-16 0 -41 -8
-56 -18 -15 -9 -27 -13 -27 -9 0 5 29 27 65 48 36 20 64 42 61 48 -4 12 -8 12
-46 1 -22 -6 -21 -4 10 23 34 29 34 29 13 43 -18 11 -20 16 -10 28 10 12 9 13
-10 3 -35 -19 -41 -14 -8 6 17 10 43 19 58 19 25 0 32 -9 72 -92z m1355 -74
c0 -5 -9 -7 -20 -4 -11 3 -20 7 -20 9 0 2 9 4 20 4 11 0 20 -4 20 -9z m303
-49 c-2 -6 3 -9 11 -6 16 6 41 -17 63 -59 15 -31 15 -32 -3 -16 -11 9 -32 21
-49 26 -22 7 -31 17 -36 42 -5 22 -3 31 5 28 6 -3 10 -9 9 -15z m154 12 c-3
-3 -12 -4 -19 -1 -8 3 -5 6 6 6 11 1 17 -2 13 -5z m-597 -33 c0 -6 -4 -12 -8
-15 -5 -3 -9 1 -9 9 0 8 4 15 9 15 4 0 8 -4 8 -9z m30 5 c0 -3 -4 -8 -10 -11
-5 -3 -10 -1 -10 4 0 6 5 11 10 11 6 0 10 -2 10 -4z m925 -5 c6 -10 -70 -88
-120 -123 l-30 -22 25 28 25 29 -35 -18 c-31 -16 -33 -16 -21 -2 7 10 17 17
22 17 21 0 89 51 83 62 -4 6 1 17 11 25 22 15 32 16 40 4z m1671 -23 c4 -7 3
-8 -4 -4 -24 15 -32 -6 -12 -31 11 -14 20 -30 20 -36 0 -6 -13 7 -29 29 -21
27 -26 41 -18 46 17 11 35 10 43 -4z m39 -26 c-3 -3 -11 0 -18 7 -9 10 -8 11
6 5 10 -3 15 -9 12 -12z m-2688 -38 c-3 -3 -13 0 -21 9 -8 8 -12 18 -9 21 4 4
14 0 22 -9 8 -8 12 -17 8 -21z m21 11 c-3 -3 -9 2 -12 12 -6 14 -5 15 5 6 7
-7 10 -15 7 -18z m1752 3 c0 -5 -9 -4 -20 2 -11 6 -20 12 -20 14 0 2 9 2 20
-1 11 -3 20 -9 20 -15z m-1798 -58 c-5 -13 -7 -12 -10 3 -2 9 -8 15 -13 12
-11 -7 -11 -3 -3 19 6 15 8 15 19 -1 7 -9 10 -24 7 -33z m549 23 c12 -16 12
-17 -1 -7 -8 6 -22 14 -30 17 -13 5 -12 6 1 6 9 1 23 -7 30 -16z m-2763 -40
c17 -37 17 -38 -27 -39 l-40 -2 26 24 c14 13 24 27 20 30 -8 8 -69 -25 -90
-50 l-18 -21 11 22 c10 21 72 62 95 62 6 1 16 -11 23 -26z m2742 -33 c0 -13
-1 -13 -10 0 -5 8 -10 22 -10 30 0 13 1 13 10 0 5 -8 10 -22 10 -30z m-529 -3
c-10 -9 -11 -8 -5 6 3 10 9 15 12 12 3 -3 0 -11 -7 -18z m621 -22 c4 -17 -1
-26 -20 -34 -13 -7 -27 -9 -30 -6 -4 3 4 8 17 12 14 3 20 11 17 19 -3 8 -9 21
-12 29 -4 11 -2 13 9 9 8 -3 17 -16 19 -29z m-2930 -37 c-9 -9 -15 -9 -24 0
-9 9 -7 12 12 12 19 0 21 -3 12 -12z m5188 -38 c0 -5 -2 -10 -4 -10 -3 0 -8 5
-11 10 -3 6 -1 10 4 10 6 0 11 -4 11 -10z m-2350 -15 c-7 -9 -15 -13 -17 -11
-7 7 7 26 19 26 6 0 6 -6 -2 -15z m2315 -3 c-3 -3 -11 0 -18 7 -9 10 -8 11 6
5 10 -3 15 -9 12 -12z m-2221 -39 c9 -25 15 -47 13 -48 -1 0 -23 -17 -49 -38
l-47 -37 -7 46 c-8 58 4 95 36 111 36 18 37 18 54 -34z m831 27 c10 -11 16
-20 13 -20 -3 0 -13 9 -23 20 -10 11 -16 20 -13 20 3 0 13 -9 23 -20z m296
-86 c30 -37 -26 4 -71 52 l-45 48 51 -42 c28 -23 57 -49 65 -58z m-1951 52
c22 -10 25 -18 28 -69 2 -31 -1 -57 -5 -57 -4 0 -24 10 -43 21 -25 16 -45 20
-77 16 -24 -2 -43 -3 -43 0 0 7 42 87 52 100 11 13 44 9 88 -11z m1710 -11
c13 -14 21 -25 18 -25 -2 0 -15 11 -28 25 -13 14 -21 25 -18 25 2 0 15 -11 28
-25z m-1628 -48 c7 -37 1 -34 -17 9 -18 45 -19 49 -2 32 8 -7 16 -26 19 -41z
m1848 -115 c0 -15 -93 66 -138 120 -15 19 8 3 56 -37 45 -38 82 -76 82 -83z
m-3560 44 c0 -36 -119 -127 -300 -231 -74 -43 -189 -111 -254 -152 -65 -40
-121 -71 -124 -68 -3 3 0 11 6 17 7 7 12 20 12 31 0 10 5 15 10 12 6 -3 10 -2
10 3 0 5 35 33 78 63 42 29 143 99 223 155 149 105 313 199 330 189 5 -4 9
-12 9 -19z m3655 -6 c3 -5 1 -10 -4 -10 -6 0 -11 5 -11 10 0 6 2 10 4 10 3 0
8 -4 11 -10z m-1311 -16 c3 -8 2 -12 -4 -9 -6 3 -10 10 -10 16 0 14 7 11 14
-7z m1420 -25 c31 -37 31 -36 7 -92 -28 -66 -50 -74 -107 -41 -24 14 -43 29
-40 31 3 3 20 -4 39 -16 47 -29 67 -27 80 9 6 17 15 30 19 30 4 0 8 13 8 29 0
23 -8 34 -42 55 -40 24 -41 25 -16 26 17 0 35 -10 52 -31z m-1144 -32 c0 -6
-11 0 -25 13 -14 13 -25 28 -25 33 0 6 11 0 25 -13 14 -13 25 -28 25 -33z
m970 23 c0 -16 -4 -30 -8 -30 -5 0 -7 14 -4 30 2 17 6 30 8 30 2 0 4 -13 4
-30z m-2151 -1 c-16 -10 -23 -4 -14 10 3 6 11 8 17 5 6 -4 5 -9 -3 -15z m658
-1 c-3 -8 -6 -5 -6 6 -1 11 2 17 5 13 3 -3 4 -12 1 -19z m248 2 c3 -5 1 -10
-4 -10 -6 0 -11 5 -11 10 0 6 2 10 4 10 3 0 8 -4 11 -10z m-810 -37 c-4 -16
-7 -37 -7 -48 1 -16 -1 -17 -9 -5 -24 37 -31 52 -19 45 7 -4 13 1 17 14 3 12
10 21 15 21 6 0 7 -11 3 -27z m613 -61 c2 -12 -1 -22 -7 -22 -13 0 -32 35 -24
44 12 12 28 0 31 -22z m332 18 c8 -5 11 -10 5 -10 -5 0 -17 5 -25 10 -8 5 -10
10 -5 10 6 0 17 -5 25 -10z m-830 -25 c-7 -9 -15 -13 -19 -10 -3 3 1 10 9 15
21 14 24 12 10 -5z m-133 -41 c1 -25 -2 -33 -9 -26 -9 9 -4 62 5 62 2 0 3 -16
4 -36z m1261 -20 c12 7 81 -57 83 -77 0 -7 2 -22 3 -34 2 -15 -4 -25 -16 -29
-25 -8 -27 -5 -33 40 -7 57 -29 86 -66 86 -17 0 -42 9 -56 20 -14 11 -21 20
-16 20 6 0 16 -7 23 -15 14 -16 40 -20 40 -6 0 5 -7 14 -15 21 -8 7 -15 18
-15 24 0 6 13 -4 29 -23 15 -19 33 -31 39 -27z m-10 21 c-3 -3 -9 2 -12 12 -6
14 -5 15 5 6 7 -7 10 -15 7 -18z m-4068 -24 c0 -9 -24 -21 -41 -21 -5 0 -9 7
-9 15 0 9 9 15 25 15 14 0 25 -4 25 -9z m2779 -13 c-17 -34 -19 -34 -19 -5 0
18 5 27 15 27 13 0 14 -4 4 -22z m-2859 3 c-14 -4 -40 -11 -57 -15 -37 -10
-42 -22 -14 -31 27 -8 81 -72 81 -95 0 -10 10 -26 22 -34 l22 -16 -21 0 c-30
0 -80 45 -120 107 -18 28 -33 54 -33 57 0 14 60 35 100 34 35 0 40 -2 20 -7z
m283 -45 c96 -51 97 -50 -33 -82 -36 -9 -73 -20 -82 -25 -17 -9 -138 -21 -138
-14 0 3 97 25 130 30 38 4 140 39 140 48 0 5 -9 11 -21 14 -13 4 -17 8 -9 13
7 4 -4 13 -28 23 -22 9 -43 21 -47 27 -10 16 -2 13 88 -34z m2624 12 c-3 -8
-6 -5 -6 6 -1 11 2 17 5 13 3 -3 4 -12 1 -19z m913 -12 c-12 -12 -40 0 -40 18
0 11 5 12 24 3 15 -7 21 -16 16 -21z m-3610 4 c8 -5 11 -10 5 -10 -5 0 -17 5
-25 10 -8 5 -10 10 -5 10 6 0 17 -5 25 -10z m-185 -38 c-3 -3 -11 0 -18 7 -9
10 -8 11 6 5 10 -3 15 -9 12 -12z m3144 6 c0 -7 -6 -47 -14 -88 l-13 -75 -2
60 c-1 47 -3 55 -10 38 -5 -13 -14 -23 -20 -23 -5 0 -10 -8 -10 -17 0 -15 -2
-15 -9 -4 -6 9 -3 21 10 34 10 12 19 31 19 43 0 13 8 28 18 33 23 14 32 13 31
-1z m-600 -50 c-8 -14 -14 -18 -17 -10 -4 13 17 46 25 38 3 -2 -1 -15 -8 -28z
m1310 -28 c20 0 22 -3 13 -12 -10 -10 -17 -10 -32 0 -27 16 -40 15 -40 -4 0
-20 -16 -10 -23 15 -3 15 -1 18 11 14 11 -5 13 -3 7 7 -5 9 0 7 16 -3 13 -9
35 -17 48 -17z m403 2 c-3 -10 -1 -13 6 -8 12 7 35 -27 25 -37 -5 -5 24 -62
65 -124 8 -13 12 -23 9 -23 -5 0 -127 194 -127 203 0 2 6 4 14 4 8 0 12 -6 8
-15z m-92 -94 c43 -88 27 -74 -27 24 -18 32 -28 58 -23 58 5 0 28 -37 50 -82z
m-171 27 c0 -5 -4 -3 -9 5 -5 8 -9 22 -9 30 0 16 17 -16 18 -35z m-1299 0 c0
-8 -4 -15 -10 -15 -5 0 -10 7 -10 15 0 8 5 15 10 15 6 0 10 -7 10 -15z m194
-10 c3 -9 0 -15 -9 -15 -8 0 -15 7 -15 15 0 8 4 15 9 15 5 0 11 -7 15 -15z
m31 3 c-2 -7 -15 -66 -30 -131 -15 -65 -29 -116 -31 -114 -3 3 7 56 21 118 28
126 32 139 39 139 3 0 4 -6 1 -12z m25 -25 c-11 -17 -11 -17 -6 0 3 10 6 24 7
30 0 9 2 9 5 0 3 -7 0 -20 -6 -30z m-139 -54 c-5 -13 -10 -19 -10 -12 -1 15
10 45 15 40 3 -2 0 -15 -5 -28z m1238 -63 c-1 -15 -28 46 -28 64 0 8 6 0 14
-19 8 -18 15 -38 14 -45z m387 -21 c26 -35 50 -62 54 -60 8 5 43 -65 37 -72
-4 -3 -67 79 -126 165 -40 58 -14 34 35 -33z m-1656 -20 c-16 -47 -23 -40 -8
8 6 20 13 35 16 33 2 -3 -1 -21 -8 -41z m1211 -72 c11 -32 15 -53 10 -48 -9
10 -51 120 -51 133 1 14 22 -30 41 -85z m-414 15 c-3 -8 -6 -5 -6 6 -1 11 2
17 5 13 3 -3 4 -12 1 -19z m-820 -10 c-3 -8 -6 -5 -6 6 -1 11 2 17 5 13 3 -3
4 -12 1 -19z m100 -30 c-3 -8 -6 -5 -6 6 -1 11 2 17 5 13 3 -3 4 -12 1 -19z"/>
<path d="M6586 4079 c3 -5 -2 -9 -10 -9 -18 0 -22 -25 -6 -35 15 -9 65 18 65
35 0 9 -10 15 -27 16 -15 1 -25 -3 -22 -7z"/>
<path d="M4540 3774 c0 -19 -3 -33 -8 -30 -4 2 -7 -13 -7 -35 0 -40 2 -44 20
-31 14 10 19 132 5 132 -5 0 -10 -16 -10 -36z"/>
<path d="M4575 3700 c-4 -17 -10 -30 -14 -30 -13 0 -31 -49 -31 -83 0 -27 -8
-37 -45 -62 -25 -16 -47 -36 -50 -42 -6 -18 35 -16 59 2 39 29 42 21 21 -55
-6 -23 -6 -23 14 5 11 17 21 25 21 20 0 -6 20 -18 45 -27 50 -19 55 -13 24 26
-12 15 -19 29 -17 32 3 2 37 -3 76 -13 40 -9 75 -13 79 -9 5 5 2 11 -6 14 -8
3 -24 15 -36 27 -11 13 -32 25 -45 27 -14 2 -24 9 -22 16 1 6 -3 11 -10 10
-19 -5 -21 32 -2 53 16 17 16 19 1 19 -15 0 -23 30 -19 71 0 3 -8 10 -18 17
-16 10 -19 8 -25 -18z m22 -72 c-3 -22 -4 -21 -11 4 -5 16 -5 36 0 45 7 16 8
15 11 -4 3 -13 3 -33 0 -45z"/>
<path d="M3130 3700 c0 -5 7 -10 15 -10 8 0 15 5 15 10 0 6 -7 10 -15 10 -8 0
-15 -4 -15 -10z"/>
<path d="M3051 3576 c-10 -12 -10 -19 3 -38 9 -12 16 -31 16 -41 0 -10 8 -26
18 -37 17 -18 17 -17 12 40 -7 68 -28 101 -49 76z"/>
<path d="M3175 3549 c-9 -27 -1 -33 24 -19 19 10 23 7 38 -32 l17 -42 12 29
c15 37 13 40 -36 65 -48 25 -47 25 -55 -1z"/>
<path d="M4816 3520 c-26 -52 -20 -64 14 -30 17 17 29 80 16 80 -3 0 -16 -22
-30 -50z"/>
<path d="M4710 3536 c6 -8 18 -12 26 -9 23 9 16 23 -12 23 -22 0 -24 -2 -14
-14z"/>
<path d="M2944 3494 c3 -9 6 -24 6 -34 0 -19 59 -95 67 -86 2 2 -3 18 -11 35
-9 16 -16 39 -16 50 0 21 -25 51 -42 51 -5 0 -7 -7 -4 -16z"/>
<path d="M4859 3336 c-55 -58 -103 -142 -94 -163 5 -10 8 -21 7 -25 -1 -4 7
-9 17 -13 11 -3 22 -13 25 -21 4 -10 2 -13 -6 -8 -6 4 -4 -3 5 -17 26 -37 20
-46 -11 -16 -35 34 -57 34 -78 2 -20 -30 -32 -115 -16 -115 6 0 14 5 17 10 3
6 13 10 21 10 10 0 13 -7 9 -23 -4 -16 0 -28 11 -38 16 -13 17 -11 12 33 -4
38 -2 48 11 52 49 13 101 -17 101 -59 0 -14 3 -25 6 -25 12 0 33 35 34 55 0
17 -2 17 -10 5 -6 -9 -10 -10 -10 -3 0 6 4 14 9 17 15 10 19 67 5 73 -9 3 -11
16 -8 36 4 25 3 28 -5 17 -6 -8 -11 -11 -11 -6 0 5 -10 1 -22 -10 -13 -10 -20
-15 -16 -10 4 5 3 16 -2 26 -10 19 -14 75 -6 105 2 11 5 23 5 28 1 4 12 7 26
7 21 0 25 5 24 28 -1 15 -4 41 -8 57 l-7 30 -35 -39z"/>
<path d="M3688 3315 c-106 -15 -238 -49 -247 -64 -3 -5 -24 -14 -46 -20 -22
-6 -51 -17 -63 -25 -22 -12 -22 -14 -8 -29 14 -14 26 -12 133 24 202 69 420
85 638 49 133 -22 175 -24 175 -11 0 13 -77 46 -135 59 -123 27 -325 35 -447
17z"/>
<path d="M4214 3111 l27 -51 22 26 c22 26 23 26 60 10 21 -8 51 -25 67 -36
l29 -21 7 25 c3 14 3 29 0 35 -11 17 -116 51 -178 58 l-60 6 26 -52z"/>
<path d="M2167 3059 c7 -7 15 -10 18 -7 3 3 -2 9 -12 12 -14 6 -15 5 -6 -5z"/>
<path d="M5279 3033 c-13 -16 -12 -17 4 -4 9 7 17 15 17 17 0 8 -8 3 -21 -13z"/>
<path d="M5470 2989 c-47 -33 -96 -72 -110 -86 l-25 -25 42 26 c24 14 51 26
61 26 17 0 122 99 122 114 0 9 0 9 -90 -55z"/>
<path d="M2170 3035 c0 -5 161 -105 207 -128 20 -11 34 -13 38 -7 7 11 -143
112 -155 105 -5 -3 -16 -2 -25 1 -13 6 -14 9 -3 16 10 8 10 9 -2 5 -8 -2 -25
0 -37 4 -13 5 -23 7 -23 4z m126 -63 c-4 -3 -14 2 -24 12 -16 18 -16 18 6 6
13 -6 21 -14 18 -18z m114 -68 c0 -2 -9 0 -20 6 -11 6 -20 13 -20 16 0 2 9 0
20 -6 11 -6 20 -13 20 -16z"/>
<path d="M5299 3023 c-13 -16 -12 -17 4 -4 9 7 17 15 17 17 0 8 -8 3 -21 -13z"/>
<path d="M4491 3001 c-10 -17 -14 -18 -66 -6 -67 16 -65 3 2 -16 l48 -13 -45
-12 -45 -12 48 -1 c26 -1 62 6 79 15 34 17 97 12 99 -9 1 -7 2 -21 3 -31 1
-11 7 -21 15 -24 11 -4 13 3 7 29 -9 45 -23 57 -76 63 -25 2 -48 5 -52 5 -4 1
-5 8 -2 16 9 21 -3 19 -15 -4z"/>
<path d="M4810 2843 c-19 -29 -42 -53 -51 -53 -9 0 -24 -9 -34 -20 -10 -11
-26 -20 -37 -20 -10 0 -18 -4 -18 -10 0 -5 -10 -10 -22 -10 -12 0 -49 -13 -83
-30 -33 -16 -68 -32 -78 -34 -31 -10 -8 -26 34 -26 23 0 39 -3 37 -7 -23 -47
-32 -60 -51 -68 -12 -6 -23 -18 -25 -29 -3 -11 0 -16 7 -12 7 4 9 1 5 -7 -9
-24 12 -28 31 -7 17 19 19 19 31 2 12 -16 14 -15 38 7 24 22 24 25 11 52 -16
30 -20 73 -7 65 5 -3 16 8 26 25 12 20 25 29 43 29 18 0 24 4 19 15 -3 8 -3
15 1 15 11 0 32 -35 33 -55 0 -36 -12 -44 -57 -35 -27 4 -40 4 -36 -3 3 -5 1
-12 -5 -16 -5 -3 14 -6 44 -6 45 0 54 3 54 18 0 10 4 16 9 13 5 -4 21 7 34 24
24 28 26 28 32 11 3 -12 -3 -38 -17 -63 -37 -69 -39 -78 -21 -71 11 4 14 3 9
-6 -5 -7 -18 -16 -31 -21 -12 -5 -25 -19 -28 -32 -5 -21 -5 -21 7 -5 12 15 15
15 26 2 11 -13 16 -9 41 25 26 35 44 46 72 41 4 0 7 4 7 10 0 6 7 3 16 -5 8
-9 23 -16 32 -16 14 0 14 2 3 9 -8 5 -14 27 -15 54 -1 25 -4 40 -8 34 -5 -8
-8 -6 -8 5 0 10 9 18 23 20 18 2 23 11 28 52 3 30 11 52 22 58 9 5 17 16 17
24 0 13 -4 13 -30 -1 -16 -8 -36 -15 -44 -15 -22 0 -31 39 -12 53 13 10 13 16
2 36 l-14 24 -8 -24 c-8 -24 -8 -24 -14 6 l-6 30 -34 -52z m2 -263 c-16 -38
-32 -52 -32 -30 0 18 30 70 40 70 4 0 1 -18 -8 -40z"/>
<path d="M5466 2874 c-23 -23 -20 -30 4 -9 11 10 20 20 20 22 0 7 -9 2 -24
-13z"/>
<path d="M4685 2860 c-3 -5 3 -10 14 -10 12 0 21 5 21 10 0 6 -6 10 -14 10 -8
0 -18 -4 -21 -10z"/>
<path d="M5375 2850 c-15 -17 -16 -20 -3 -20 9 0 18 9 21 20 3 11 4 20 3 20
-2 0 -11 -9 -21 -20z"/>
<path d="M5259 2817 c6 -8 7 -18 3 -22 -4 -5 -2 -5 4 -2 6 3 24 -7 39 -23 16
-17 33 -30 39 -30 5 0 19 -8 30 -17 20 -18 20 -18 2 11 l-19 30 29 23 c33 26
17 30 -28 7 -27 -14 -33 -14 -42 -2 -11 15 -49 38 -62 38 -3 0 -1 -6 5 -13z"/>
<path d="M4625 2800 c3 -5 30 -10 60 -10 30 0 57 5 60 10 4 6 -18 10 -60 10
-42 0 -64 -4 -60 -10z"/>
<path d="M5435 2740 c-38 -25 -11 -25 35 0 26 14 30 19 15 20 -11 0 -33 -9
-50 -20z"/>
<path d="M4344 2567 c0 -34 -6 -72 -13 -85 -24 -45 7 -168 35 -139 10 10 11
192 2 235 -15 63 -24 59 -24 -11z"/>
<path d="M4635 2560 c-3 -5 -5 -10 -3 -10 57 -9 98 -7 98 4 0 16 -86 21 -95 6z"/>
<path d="M5636 2552 c-8 -13 39 -21 56 -11 10 7 9 9 -4 9 -9 0 -23 3 -31 6 -8
3 -18 1 -21 -4z"/>
<path d="M4599 2503 c-13 -16 -12 -17 4 -4 16 13 21 21 13 21 -2 0 -10 -8 -17
-17z"/>
<path d="M4936 2492 c-3 -6 -1 -14 5 -17 15 -10 25 3 12 16 -7 7 -13 7 -17 1z"/>
<path d="M4561 2474 c0 -11 3 -14 6 -6 3 7 2 16 -1 19 -3 4 -6 -2 -5 -13z"/>
<path d="M4730 2421 c0 -17 4 -32 8 -35 4 -2 8 11 8 30 0 19 -4 34 -8 34 -4 0
-8 -13 -8 -29z"/>
<path d="M4945 2374 c24 -20 37 -23 65 -19 19 4 39 10 44 15 11 11 -57 30
-104 30 l-35 -1 30 -25z"/>
<path d="M2803 2378 c4 -11 1 -18 -7 -18 -9 0 -15 -20 -20 -62 -8 -76 0 -90
10 -17 5 38 9 48 14 34 4 -11 3 -30 -1 -43 -12 -32 -12 -32 19 -32 36 0 61
-27 67 -73 4 -32 1 -38 -31 -57 -19 -12 -43 -34 -52 -49 -9 -14 -21 -29 -26
-33 -6 -4 -8 -10 -4 -13 3 -4 26 13 50 38 64 65 106 68 151 10 19 -24 42 -30
52 -13 4 6 1 9 -7 8 -8 -2 -14 10 -16 35 -3 34 -6 37 -33 37 -16 0 -29 4 -29
9 0 5 -15 31 -33 57 -19 27 -37 60 -40 74 -3 14 -13 34 -22 45 -16 20 -16 20
-9 -4 4 -17 3 -22 -7 -18 -8 2 -12 11 -10 18 8 25 3 61 -9 73 -10 8 -12 7 -7
-6z"/>
<path d="M3243 2290 c-24 -26 -43 -55 -43 -64 0 -9 -4 -16 -10 -16 -5 0 -10
-5 -10 -10 0 -7 6 -7 18 -1 24 13 52 -4 52 -32 1 -20 2 -20 11 -4 6 10 9 30 7
45 -2 22 -8 27 -30 27 l-27 -1 22 24 c12 13 23 19 25 13 2 -5 10 -7 19 -4 12
5 14 3 8 -7 -5 -9 -4 -11 3 -6 15 9 16 46 1 46 -6 0 -9 9 -6 20 3 11 4 20 4
20 -1 -1 -21 -23 -44 -50z"/>
<path d="M4993 2328 c2 -7 14 -13 27 -13 13 0 25 6 28 13 2 8 -7 12 -28 12
-21 0 -30 -4 -27 -12z"/>
<path d="M4685 2309 c-33 -11 -74 -32 -92 -45 -34 -26 -45 -30 -40 -15 2 9
-10 11 -28 4 -6 -2 -10 -19 -10 -37 1 -29 -3 -35 -32 -45 -33 -12 -44 -35 -20
-44 9 -4 9 -6 0 -6 -7 -1 -10 -7 -7 -15 3 -8 0 -25 -6 -38 -10 -19 -10 -21 1
-10 19 18 26 15 33 -14 5 -18 2 -32 -10 -45 -23 -25 -10 -37 15 -15 18 17 19
16 26 -3 4 -13 0 -27 -9 -37 -20 -20 -20 -34 -1 -34 9 0 19 9 23 20 7 18 13
13 60 -40 29 -33 57 -60 63 -60 15 0 10 46 -10 99 -11 31 -15 51 -9 53 7 3 5
15 -5 34 -22 43 -31 102 -18 118 15 18 83 6 114 -20 12 -10 24 -20 27 -22 2
-2 -2 -7 -9 -11 -19 -12 -4 -51 20 -51 10 0 19 5 19 12 0 6 7 4 18 -5 21 -20
48 -22 58 -6 5 8 13 4 24 -11 l18 -23 11 21 c6 11 12 38 14 60 2 21 7 45 12
51 4 8 -5 26 -26 47 -37 38 -88 46 -116 19 -9 -10 -23 -13 -36 -9 -12 4 -53 8
-92 9 -39 1 -77 5 -83 9 -7 4 -12 2 -12 -5 0 -7 -3 -9 -6 -6 -4 4 1 18 10 33
20 30 101 69 164 79 23 4 42 11 42 16 0 14 -29 10 -95 -12z"/>
<path d="M5060 2320 c-8 -5 -11 -12 -7 -16 4 -4 13 -2 19 4 15 15 7 24 -12 12z"/>
<path d="M3021 2218 c0 -53 -4 -103 -7 -112 -3 -9 -2 -16 2 -16 18 0 56 95 52
130 l-4 35 -9 -35 c-9 -35 -9 -34 -21 30 l-12 65 -1 -97z"/>
<path d="M2972 2270 c0 -14 2 -19 5 -12 2 6 2 18 0 25 -3 6 -5 1 -5 -13z"/>
<path d="M2982 2210 c0 -14 2 -19 5 -12 2 6 2 18 0 25 -3 6 -5 1 -5 -13z"/>
<path d="M2761 2118 c0 -38 2 -68 7 -68 4 0 6 21 4 48 -5 82 -9 89 -11 20z"/>
<path d="M3110 2145 c-7 -9 -8 -15 -2 -15 5 0 12 7 16 15 3 8 4 15 2 15 -2 0
-9 -7 -16 -15z"/>
<path d="M5636 2121 c-3 -5 1 -11 9 -15 15 -6 29 7 18 18 -9 9 -21 8 -27 -3z"/>
<path d="M5676 2065 c-11 -8 -16 -15 -10 -15 5 0 18 7 28 15 11 8 16 15 10 15
-5 0 -18 -7 -28 -15z"/>
<path d="M5596 2015 c-27 -29 -39 -62 -25 -71 5 -3 9 1 9 9 0 8 11 31 25 51
28 42 24 47 -9 11z"/>
<path d="M2850 2010 c-10 -19 -10 -20 9 -8 18 11 25 8 58 -22 l38 -35 -40 43
c-21 23 -42 42 -47 42 -4 0 -12 -9 -18 -20z"/>
<path d="M5796 2011 c-4 -6 -36 -11 -74 -11 -37 0 -74 -5 -82 -10 -15 -10 -14
-11 29 -15 13 -1 33 -14 44 -29 19 -26 60 -35 72 -16 4 6 11 8 16 5 5 -3 18 3
30 14 l21 20 -25 26 c-16 18 -27 23 -31 16z m-36 -71 c0 -5 -7 -10 -16 -10 -8
0 -12 5 -9 10 3 6 10 10 16 10 5 0 9 -4 9 -10z"/>
<path d="M5267 1983 c-11 -10 -8 -25 3 -18 5 3 18 1 27 -4 14 -8 15 -10 3 -11
-8 0 -21 -4 -29 -9 -12 -7 -10 -14 8 -36 22 -29 28 -51 11 -40 -10 6 -26 -42
-16 -52 3 -3 12 0 21 7 13 11 14 10 8 -6 -6 -17 -5 -17 10 -5 9 7 14 18 10 24
-10 16 -3 109 8 123 17 20 -46 46 -64 27z"/>
<path d="M5392 1979 c-18 -5 -30 -14 -27 -19 4 -6 2 -10 -3 -10 -17 0 -22 -29
-10 -54 6 -14 16 -22 24 -19 23 9 16 -26 -11 -52 -23 -24 -40 -29 -77 -26 -9
1 -19 -3 -23 -9 -10 -17 -25 -1 -25 28 0 15 -5 34 -10 42 -7 11 -10 11 -10 2
0 -7 -4 -11 -9 -7 -10 6 -16 -9 -26 -67 -4 -26 -11 -38 -22 -38 -12 0 -14 3
-6 11 13 13 2 71 -14 76 -13 5 -29 -60 -19 -76 4 -6 -5 -13 -19 -17 -14 -3
-24 -11 -22 -17 4 -13 56 -43 83 -49 12 -2 18 -10 16 -22 -3 -15 2 -12 21 9
l24 29 28 -22 c31 -25 52 -13 34 19 -11 22 10 31 51 22 31 -6 39 4 18 25 -9 9
-7 17 10 35 12 13 22 35 22 50 0 14 5 29 10 32 6 3 10 14 10 24 0 10 11 39 24
64 26 52 23 54 -42 36z"/>
<path d="M4813 1963 c-20 -7 -15 -23 7 -23 11 0 20 4 20 9 0 13 -12 19 -27 14z"/>
<path d="M5086 1961 c-4 -7 -5 -15 -2 -18 9 -9 19 4 14 18 -4 11 -6 11 -12 0z"/>
<path d="M2911 1936 c-17 -21 -18 -85 -2 -95 11 -7 11 -9 0 -13 -10 -3 -10 -6
-1 -12 8 -4 16 2 22 19 13 34 13 52 0 60 -8 5 -7 11 1 21 8 10 9 18 2 25 -7 7
-14 5 -22 -5z"/>
<path d="M2821 1919 c0 -9 -4 -30 -7 -46 -4 -21 -2 -32 8 -35 10 -4 13 3 10
31 -4 49 -9 71 -11 50z"/>
<path d="M3030 1910 c-13 -25 -10 -112 4 -107 6 2 11 8 12 13 0 5 4 17 9 28 5
11 4 26 -2 35 -5 9 -9 24 -7 34 3 22 -3 22 -16 -3z"/>
<path d="M2947 1840 c-4 -17 0 -20 24 -20 19 0 29 5 29 15 0 9 -6 12 -15 9 -8
-4 -15 -1 -15 5 0 19 -17 12 -23 -9z"/>
<path d="M4490 1830 c0 -19 20 -27 33 -13 8 7 -11 33 -24 33 -5 0 -9 -9 -9
-20z"/>
<path d="M2720 1801 c0 -5 9 -7 20 -4 11 3 20 0 20 -6 0 -5 7 -8 15 -5 8 4 12
10 9 15 -7 12 -64 12 -64 0z"/>
<path d="M2942 1798 c7 -20 48 -23 48 -4 0 11 -9 16 -26 16 -16 0 -24 -5 -22
-12z"/>
<path d="M3296 1801 c-3 -5 1 -11 9 -15 8 -3 15 -1 15 4 0 13 -18 22 -24 11z"/>
<path d="M2706 1759 c-34 -26 -30 -30 17 -20 34 8 52 -1 25 -12 -7 -3 1 -6 17
-6 17 -1 50 -7 74 -14 l43 -13 -51 -43 c-28 -24 -51 -49 -51 -56 0 -23 -30
-45 -61 -45 -21 0 -40 -11 -65 -35 -20 -20 -29 -35 -21 -35 8 0 20 7 27 15 14
17 56 20 65 5 3 -5 18 -11 33 -11 24 -2 24 -2 5 -6 -13 -2 -23 -7 -22 -11 2
-20 68 -127 77 -125 6 2 9 -3 6 -10 -5 -14 52 -97 67 -97 5 0 20 7 34 16 13 9
38 14 57 12 l33 -4 -30 -8 c-59 -15 -60 -16 -29 -32 57 -29 72 -69 22 -59
l-33 7 20 -22 c11 -12 30 -26 43 -31 12 -5 26 -20 32 -33 8 -21 45 -56 60 -56
3 0 6 9 6 20 0 11 -4 20 -8 20 -4 0 -8 5 -8 10 0 6 7 10 15 10 8 0 15 -4 15
-10 0 -5 22 -10 49 -10 28 0 53 -4 56 -10 3 -5 14 -10 23 -9 11 0 12 3 5 6 -7
2 -13 17 -13 31 -1 25 -2 25 -14 10 -7 -10 -18 -18 -24 -18 -19 0 -62 23 -62
33 0 6 5 6 13 0 6 -6 22 -13 35 -16 20 -5 22 -3 10 11 -7 9 -20 22 -28 29 -12
10 -9 11 18 11 18 -1 35 -4 37 -8 3 -4 23 -5 44 -3 34 4 44 1 66 -23 14 -15
25 -31 25 -35 0 -5 6 -9 14 -9 17 0 25 29 16 55 -7 19 -7 19 -18 0 -10 -18
-11 -17 -12 10 0 21 -7 33 -22 40 -12 6 -24 17 -28 25 -4 8 -16 34 -29 58 -23
45 -22 48 11 31 16 -9 19 -8 16 3 -5 16 -58 24 -58 9 0 -21 -15 -11 -28 19
-17 37 -29 38 -42 5 -5 -14 -14 -25 -19 -25 -10 0 -27 -39 -23 -53 4 -14 -25
-18 -59 -9 l-34 10 36 1 c20 1 38 3 41 6 3 3 0 26 -5 50 -7 30 -13 41 -19 33
-6 -10 -8 -10 -8 0 0 6 -10 12 -22 12 -13 0 -32 7 -42 15 -23 17 -14 20 15 5
16 -9 21 -7 29 15 13 35 13 40 -4 26 -10 -9 -17 -7 -27 6 -12 14 -12 16 1 11
11 -4 16 1 17 15 1 11 7 24 14 28 8 4 10 20 6 42 -4 25 -2 34 6 31 7 -2 24 11
40 31 l27 34 -27 17 c-16 10 -39 24 -52 32 -21 13 -22 16 -8 24 11 5 31 5 54
-1 48 -14 66 -14 58 -1 -9 14 1 12 36 -6 35 -18 44 -15 26 8 -6 9 -32 19 -57
23 -42 7 -44 7 -30 -11 15 -18 14 -18 -14 0 -25 16 -35 17 -88 6 -79 -15 -139
-11 -156 12 -7 10 -19 18 -25 18 -7 0 -34 11 -61 25 -60 30 -66 31 -100 4z
m130 -163 c10 -8 17 -17 14 -19 -3 -3 -16 3 -30 13 -29 22 -14 27 16 6z m39
-39 c-7 -28 -24 -35 -68 -29 -27 4 -27 5 -11 23 11 13 24 17 40 13 17 -4 26
-1 30 10 10 25 16 12 9 -17z m141 -146 c-4 -6 -16 -11 -27 -11 -19 0 -24 15
-13 45 6 15 9 15 27 -3 11 -11 16 -25 13 -31z m-99 -17 c-3 -3 -12 -4 -19 -1
-8 3 -5 6 6 6 11 1 17 -2 13 -5z m389 -232 c-26 -5 -46 5 -46 25 0 9 -10 28
-22 42 -13 13 1 5 31 -20 38 -32 49 -45 37 -47z m-57 -10 c-12 -5 -39 17 -39
30 0 5 11 1 24 -9 13 -10 20 -20 15 -21z m-69 12 c0 -2 -7 -4 -15 -4 -8 0 -15
4 -15 10 0 5 7 7 15 4 8 -4 15 -8 15 -10z"/>
<path d="M3285 1760 c-2 -3 5 -7 16 -7 10 -1 19 2 19 6 0 9 -29 10 -35 1z"/>
<path d="M3195 1740 c28 -12 37 -12 30 0 -3 6 -16 10 -28 9 -21 0 -21 -1 -2
-9z"/>
<path d="M3250 1726 c-8 -10 -8 -21 -2 -32 6 -11 11 -13 16 -5 4 6 2 11 -4 11
-8 0 -8 6 0 20 13 23 8 26 -10 6z"/>
<path d="M3300 1710 c-9 -16 -8 -20 5 -20 9 0 18 7 21 15 4 8 10 13 14 10 5
-3 11 -2 14 3 2 4 -6 9 -19 10 -16 1 -28 -6 -35 -18z"/>
<path d="M3496 1706 c3 -13 0 -35 -6 -48 -11 -20 -11 -21 3 -8 8 8 19 30 25
48 10 29 9 32 -9 32 -15 0 -18 -5 -13 -24z"/>
<path d="M3257 1649 c-21 -38 -22 -56 -1 -39 22 19 34 44 26 57 -5 7 -14 0
-25 -18z"/>
<path d="M3290 1675 c0 -5 5 -17 10 -25 5 -8 10 -10 10 -5 0 6 -5 17 -10 25
-5 8 -10 11 -10 5z"/>
<path d="M4496 1571 c-4 -5 -2 -12 3 -15 5 -4 12 -2 15 3 4 5 2 12 -3 15 -5 4
-12 2 -15 -3z"/>
<path d="M3127 1564 c-8 -8 1 -24 14 -24 5 0 9 7 9 15 0 15 -12 20 -23 9z"/>
<path d="M3380 1522 c0 -10 -5 -23 -11 -29 -6 -6 -9 -17 -7 -25 3 -8 11 -1 21
19 19 37 21 53 7 53 -5 0 -10 -8 -10 -18z"/>
<path d="M3227 1477 c-33 -35 -47 -59 -47 -79 0 -35 19 -36 50 -3 17 18 21 31
17 54 -5 25 -3 28 12 24 23 -6 33 9 24 36 -7 18 -12 15 -56 -32z"/>
<path d="M3270 1434 c-12 -31 -12 -34 -2 -34 4 0 16 14 25 30 16 27 16 30 2
30 -8 0 -20 -12 -25 -26z"/>
<path d="M4663 1446 c4 -13 45 -15 50 -2 3 6 -8 11 -24 11 -16 0 -28 -4 -26
-9z"/>
<path d="M3329 1424 c-14 -37 -6 -39 15 -4 10 17 13 30 6 30 -6 0 -15 -12 -21
-26z"/>
<path d="M4743 1443 c-7 -3 -13 -11 -13 -18 0 -7 -6 -16 -12 -18 -8 -3 -6 -6
5 -6 9 -1 17 4 17 9 0 6 5 10 11 10 6 0 9 -6 6 -12 -2 -7 9 -21 25 -30 15 -10
28 -25 28 -33 0 -11 10 -15 36 -15 19 0 44 -5 54 -10 16 -9 22 -5 35 20 9 17
13 36 9 42 -4 6 -3 8 3 5 6 -4 13 0 16 8 5 11 1 12 -15 6 -12 -4 -44 -3 -72 1
-28 5 -57 10 -63 10 -7 1 -13 5 -13 10 0 4 -9 8 -19 8 -11 0 -21 4 -23 9 -1 4
-9 6 -15 4z"/>
<path d="M4678 1413 c7 -3 16 -2 19 1 4 3 -2 6 -13 5 -11 0 -14 -3 -6 -6z"/>
<path d="M5144 1385 c-4 -8 -10 -13 -14 -10 -11 7 -101 -95 -147 -165 -72
-108 -236 -258 -395 -361 -51 -33 -56 -44 -34 -74 13 -18 18 -16 101 36 157
97 357 308 447 469 36 65 60 120 53 120 -3 0 -8 -7 -11 -15z"/>
<path d="M3398 1383 c-32 -8 -19 -19 18 -15 25 3 32 7 23 13 -8 5 -16 8 -19 8
-3 -1 -13 -3 -22 -6z"/>
<path d="M3387 1333 c3 -7 11 -13 19 -13 8 0 14 6 14 13 0 7 -8 13 -19 13 -11
0 -17 -5 -14 -13z"/>
<path d="M4592 1334 c-14 -9 -22 -25 -21 -42 l0 -27 12 25 c14 31 26 40 55 40
13 0 20 4 17 10 -9 15 -37 12 -63 -6z"/>
<path d="M3501 1324 c0 -11 3 -14 6 -6 3 7 2 16 -1 19 -3 4 -6 -2 -5 -13z"/>
<path d="M4673 1288 l-2 -43 10 34 c6 19 7 37 2 42 -5 5 -10 -9 -10 -33z"/>
<path d="M4610 1290 c0 -32 14 -40 24 -14 9 24 7 31 -9 38 -11 4 -15 -2 -15
-24z"/>
<path d="M3343 1295 c-7 -8 -13 -21 -13 -30 0 -16 49 -64 79 -77 13 -6 12 -8
-6 -14 -34 -10 -28 -20 11 -21 27 -1 33 2 29 14 -4 11 0 14 13 11 14 -2 25 8
42 39 12 23 22 46 22 52 0 5 -23 -6 -51 -25 -57 -38 -74 -41 -100 -18 -13 11
-16 25 -12 50 6 37 4 40 -14 19z"/>
<path d="M3410 1300 c0 -14 15 -19 29 -11 9 6 7 10 -8 14 -12 3 -21 1 -21 -3z"/>
<path d="M3454 1274 c-18 -14 -18 -14 6 -3 31 14 36 19 24 19 -6 0 -19 -7 -30
-16z"/>
<path d="M4456 1235 c-3 -9 -6 -24 -5 -33 0 -9 5 -4 10 12 9 32 6 48 -5 21z"/>
<path d="M3570 1209 c-19 -16 -45 -32 -57 -35 -27 -7 -31 -21 -5 -19 28 2 59
23 82 55 26 37 24 37 -20 -1z"/>
<path d="M3430 1127 c-8 -7 -16 -25 -17 -42 0 -16 1 -25 3 -19 3 7 14 10 24 7
21 -6 26 14 12 49 -6 13 -10 14 -22 5z"/>
<path d="M4738 700 c11 -19 35 -64 53 -100 43 -84 112 -193 159 -250 20 -25
53 -70 73 -100 37 -57 113 -137 121 -129 6 6 -85 143 -119 179 -12 14 -32 43
-43 65 -27 51 -82 133 -82 121 0 -6 -15 15 -33 45 -29 48 -71 106 -130 181
-16 20 -16 18 1 -12z"/>
<path d="M3381 3794 c0 -11 3 -14 6 -6 3 7 2 16 -1 19 -3 4 -6 -2 -5 -13z"/>
<path d="M3121 2784 c-12 -14 -11 -16 4 -12 10 1 20 9 23 16 5 17 -10 15 -27
-4z"/>
<path d="M664 2518 c-15 -47 74 -78 100 -34 8 14 8 20 -2 23 -7 3 -19 11 -26
19 -17 16 -30 19 -21 4 3 -5 2 -10 -4 -10 -5 0 -13 5 -16 10 -10 16 -23 11
-31 -12z"/>
<path d="M805 2460 c3 -5 11 -10 16 -10 6 0 7 5 4 10 -3 6 -11 10 -16 10 -6 0
-7 -4 -4 -10z"/>
<path d="M3940 2095 c-10 -12 -10 -18 0 -30 20 -25 55 -15 55 15 0 30 -35 40
-55 15z"/>
<path d="M3761 2043 c21 -25 90 -53 132 -53 37 0 115 26 105 35 -3 3 -21 -2
-41 -10 -53 -22 -84 -19 -144 15 -60 34 -71 37 -52 13z"/>
<path d="M2497 1339 c-22 -11 -36 -23 -33 -26 5 -5 76 35 76 43 0 6 -1 5 -43
-17z"/>
<path d="M2860 657 c-23 -19 -57 -77 -46 -77 2 0 23 23 46 50 44 52 43 65 0
27z"/>
<path d="M4840 381 c0 -6 4 -13 10 -16 6 -3 7 1 4 9 -7 18 -14 21 -14 7z"/>
<path d="M4096 1163 c-6 -14 -5 -15 5 -6 7 7 10 15 7 18 -3 3 -9 -2 -12 -12z"/>
<path d="M4000 574 c0 -35 97 -95 156 -97 62 -2 59 23 -2 30 -51 5 -134 42
-134 59 0 8 -4 14 -10 14 -5 0 -10 -3 -10 -6z"/>
<path d="M4216 504 c-9 -23 -8 -24 15 -24 11 0 30 -5 41 -11 33 -18 18 9 -19
32 -27 17 -31 18 -37 3z"/>
</g>
</svg>
